<mxfile host="app.diagrams.net" agent="Mozilla/5.0 (Macintosh; Intel Mac OS X 10_15_7) AppleWebKit/537.36 (KHTML, like Gecko) Chrome/136.0.0.0 Safari/537.36" version="26.3.0" pages="10">
  <diagram name="페이지-1" id="NMgESBQWUYPld58FH72c">
    <mxGraphModel dx="1793" dy="2338" grid="1" gridSize="10" guides="1" tooltips="1" connect="1" arrows="1" fold="1" page="1" pageScale="1" pageWidth="827" pageHeight="1169" math="0" shadow="0">
      <root>
        <mxCell id="0" />
        <mxCell id="1" parent="0" />
        <mxCell id="IuKhlvaBpMDBN9rWxlXs-38" value="" style="rounded=0;whiteSpace=wrap;html=1;fillColor=#f5f5f5;fontColor=#333333;strokeColor=#666666;" parent="1" vertex="1">
          <mxGeometry x="-90" y="-10" width="1330" height="780" as="geometry" />
        </mxCell>
        <mxCell id="IuKhlvaBpMDBN9rWxlXs-53" value="" style="rounded=0;whiteSpace=wrap;html=1;fillColor=light-dark(#fff5d6, #281d00);strokeColor=#FFFFCC;" parent="1" vertex="1">
          <mxGeometry x="710" width="520" height="740" as="geometry" />
        </mxCell>
        <mxCell id="IuKhlvaBpMDBN9rWxlXs-52" value="" style="rounded=0;whiteSpace=wrap;html=1;fillColor=#CCFFCC;strokeColor=#82b366;" parent="1" vertex="1">
          <mxGeometry x="-20" width="700" height="740" as="geometry" />
        </mxCell>
        <mxCell id="IuKhlvaBpMDBN9rWxlXs-1" value="" style="rounded=1;whiteSpace=wrap;html=1;fillColor=#f5f5f5;fontColor=#333333;strokeColor=#666666;" parent="1" vertex="1">
          <mxGeometry y="50" width="1200" height="160" as="geometry" />
        </mxCell>
        <mxCell id="IuKhlvaBpMDBN9rWxlXs-5" value="" style="rounded=1;whiteSpace=wrap;html=1;fillColor=#f5f5f5;strokeColor=#666666;fontColor=#333333;" parent="1" vertex="1">
          <mxGeometry y="260" width="1200" height="160" as="geometry" />
        </mxCell>
        <mxCell id="IuKhlvaBpMDBN9rWxlXs-6" value="" style="rounded=1;whiteSpace=wrap;html=1;fillColor=#f5f5f5;strokeColor=#666666;fontColor=#333333;" parent="1" vertex="1">
          <mxGeometry y="450" width="1220" height="160" as="geometry" />
        </mxCell>
        <mxCell id="IuKhlvaBpMDBN9rWxlXs-7" value="&lt;font style=&quot;font-size: 16px;&quot;&gt;&lt;b style=&quot;&quot;&gt;DATA(entity)&lt;/b&gt;&lt;/font&gt;" style="rounded=0;whiteSpace=wrap;html=1;" parent="1" vertex="1">
          <mxGeometry x="50" y="500" width="120" height="60" as="geometry" />
        </mxCell>
        <mxCell id="IuKhlvaBpMDBN9rWxlXs-10" value="&lt;font style=&quot;font-size: 16px;&quot;&gt;&lt;b style=&quot;&quot;&gt;entity-repo&lt;br&gt;(jpa, jdbc ...)&lt;/b&gt;&lt;/font&gt;" style="rounded=0;whiteSpace=wrap;html=1;" parent="1" vertex="1">
          <mxGeometry x="210" y="500" width="120" height="60" as="geometry" />
        </mxCell>
        <mxCell id="IuKhlvaBpMDBN9rWxlXs-11" value="&lt;font style=&quot;font-size: 16px;&quot;&gt;&lt;b style=&quot;&quot;&gt;repo -interface&lt;/b&gt;&lt;/font&gt;" style="rounded=0;whiteSpace=wrap;html=1;" parent="1" vertex="1">
          <mxGeometry x="417.5" y="500" width="165" height="60" as="geometry" />
        </mxCell>
        <mxCell id="IuKhlvaBpMDBN9rWxlXs-13" value="&lt;font style=&quot;font-size: 16px;&quot;&gt;&lt;b style=&quot;&quot;&gt;repo test&lt;/b&gt;&lt;/font&gt;" style="rounded=0;whiteSpace=wrap;html=1;" parent="1" vertex="1">
          <mxGeometry x="770" y="500" width="150" height="60" as="geometry" />
        </mxCell>
        <mxCell id="IuKhlvaBpMDBN9rWxlXs-15" value="" style="endArrow=classic;html=1;rounded=0;exitX=0.5;exitY=1;exitDx=0;exitDy=0;entryX=0.465;entryY=1.02;entryDx=0;entryDy=0;entryPerimeter=0;fillColor=#dae8fc;strokeColor=#6c8ebf;strokeWidth=2;" parent="1" source="IuKhlvaBpMDBN9rWxlXs-10" target="IuKhlvaBpMDBN9rWxlXs-13" edge="1">
          <mxGeometry width="50" height="50" relative="1" as="geometry">
            <mxPoint x="390" y="540" as="sourcePoint" />
            <mxPoint x="845" y="540" as="targetPoint" />
            <Array as="points">
              <mxPoint x="270" y="720" />
              <mxPoint x="840" y="720" />
            </Array>
          </mxGeometry>
        </mxCell>
        <mxCell id="IuKhlvaBpMDBN9rWxlXs-16" value="&lt;span style=&quot;font-size: 16px;&quot;&gt;&lt;b&gt;repo fixture&lt;/b&gt;&lt;/span&gt;" style="rounded=0;whiteSpace=wrap;html=1;" parent="1" vertex="1">
          <mxGeometry x="950" y="500" width="250" height="60" as="geometry" />
        </mxCell>
        <mxCell id="IuKhlvaBpMDBN9rWxlXs-17" value="" style="endArrow=classic;html=1;rounded=0;exitX=0.5;exitY=1;exitDx=0;exitDy=0;entryX=0.529;entryY=1.059;entryDx=0;entryDy=0;entryPerimeter=0;fillColor=#dae8fc;strokeColor=#6c8ebf;strokeWidth=2;" parent="1" source="IuKhlvaBpMDBN9rWxlXs-11" target="IuKhlvaBpMDBN9rWxlXs-16" edge="1">
          <mxGeometry width="50" height="50" relative="1" as="geometry">
            <mxPoint x="390" y="540" as="sourcePoint" />
            <mxPoint x="1000" y="530" as="targetPoint" />
            <Array as="points">
              <mxPoint x="500" y="650" />
              <mxPoint x="1082" y="650" />
            </Array>
          </mxGeometry>
        </mxCell>
        <mxCell id="IuKhlvaBpMDBN9rWxlXs-18" value="&lt;font style=&quot;font-size: 16px;&quot;&gt;&lt;b style=&quot;&quot;&gt;DATA&lt;br&gt;(domain-spec)&lt;/b&gt;&lt;/font&gt;" style="rounded=0;whiteSpace=wrap;html=1;" parent="1" vertex="1">
          <mxGeometry x="50" y="300" width="120" height="60" as="geometry" />
        </mxCell>
        <mxCell id="IuKhlvaBpMDBN9rWxlXs-20" value="&lt;span style=&quot;font-size: 16px;&quot;&gt;&lt;b&gt;domain-api-interface&lt;/b&gt;&lt;/span&gt;" style="rounded=0;whiteSpace=wrap;html=1;" parent="1" vertex="1">
          <mxGeometry x="390" y="300" width="200" height="60" as="geometry" />
        </mxCell>
        <mxCell id="IuKhlvaBpMDBN9rWxlXs-21" value="&lt;span style=&quot;font-size: 16px;&quot;&gt;&lt;b&gt;domain-api-impl&lt;/b&gt;&lt;/span&gt;" style="rounded=0;whiteSpace=wrap;html=1;" parent="1" vertex="1">
          <mxGeometry x="190" y="300" width="150" height="60" as="geometry" />
        </mxCell>
        <mxCell id="IuKhlvaBpMDBN9rWxlXs-22" value="&lt;span style=&quot;font-size: 16px;&quot;&gt;&lt;b&gt;domain-api-interface&lt;/b&gt;&lt;/span&gt;" style="rounded=0;whiteSpace=wrap;html=1;" parent="1" vertex="1">
          <mxGeometry x="400" y="310" width="200" height="60" as="geometry" />
        </mxCell>
        <mxCell id="IuKhlvaBpMDBN9rWxlXs-23" value="&lt;span style=&quot;font-size: 16px;&quot;&gt;&lt;b&gt;domain-api-interface&lt;/b&gt;&lt;/span&gt;" style="rounded=0;whiteSpace=wrap;html=1;" parent="1" vertex="1">
          <mxGeometry x="410" y="320" width="200" height="60" as="geometry" />
        </mxCell>
        <mxCell id="IuKhlvaBpMDBN9rWxlXs-24" value="&lt;span style=&quot;font-size: 16px;&quot;&gt;&lt;b&gt;domain-api-impl&lt;/b&gt;&lt;/span&gt;" style="rounded=0;whiteSpace=wrap;html=1;" parent="1" vertex="1">
          <mxGeometry x="200" y="310" width="150" height="60" as="geometry" />
        </mxCell>
        <mxCell id="IuKhlvaBpMDBN9rWxlXs-25" value="&lt;span style=&quot;font-size: 16px;&quot;&gt;&lt;b&gt;domain-api-impl&lt;/b&gt;&lt;/span&gt;" style="rounded=0;whiteSpace=wrap;html=1;" parent="1" vertex="1">
          <mxGeometry x="210" y="320" width="150" height="60" as="geometry" />
        </mxCell>
        <mxCell id="IuKhlvaBpMDBN9rWxlXs-26" value="" style="endArrow=classic;html=1;rounded=0;exitX=0.5;exitY=0;exitDx=0;exitDy=0;entryX=0.75;entryY=1;entryDx=0;entryDy=0;fillColor=#f8cecc;strokeColor=#b85450;strokeWidth=2;" parent="1" source="IuKhlvaBpMDBN9rWxlXs-11" target="IuKhlvaBpMDBN9rWxlXs-25" edge="1">
          <mxGeometry width="50" height="50" relative="1" as="geometry">
            <mxPoint x="502.5" y="480" as="sourcePoint" />
            <mxPoint x="325" y="380" as="targetPoint" />
            <Array as="points">
              <mxPoint x="500" y="440" />
              <mxPoint x="320" y="440" />
            </Array>
          </mxGeometry>
        </mxCell>
        <mxCell id="IuKhlvaBpMDBN9rWxlXs-27" value="" style="endArrow=classic;html=1;rounded=0;exitX=0.5;exitY=0;exitDx=0;exitDy=0;fillColor=#f8cecc;strokeColor=#b85450;strokeWidth=2;" parent="1" source="IuKhlvaBpMDBN9rWxlXs-7" edge="1">
          <mxGeometry width="50" height="50" relative="1" as="geometry">
            <mxPoint x="390" y="540" as="sourcePoint" />
            <mxPoint x="240" y="381" as="targetPoint" />
            <Array as="points">
              <mxPoint x="110" y="440" />
              <mxPoint x="240" y="440" />
            </Array>
          </mxGeometry>
        </mxCell>
        <mxCell id="IuKhlvaBpMDBN9rWxlXs-28" value="&lt;font style=&quot;font-size: 16px;&quot;&gt;&lt;b style=&quot;&quot;&gt;implemtation test&lt;/b&gt;&lt;/font&gt;" style="rounded=0;whiteSpace=wrap;html=1;" parent="1" vertex="1">
          <mxGeometry x="770" y="300" width="150" height="60" as="geometry" />
        </mxCell>
        <mxCell id="IuKhlvaBpMDBN9rWxlXs-29" value="&lt;span style=&quot;font-size: 16px;&quot;&gt;&lt;b&gt;domain api fixture(pure java)&lt;/b&gt;&lt;/span&gt;" style="rounded=0;whiteSpace=wrap;html=1;" parent="1" vertex="1">
          <mxGeometry x="950" y="300" width="250" height="60" as="geometry" />
        </mxCell>
        <mxCell id="IuKhlvaBpMDBN9rWxlXs-30" value="" style="endArrow=classic;html=1;rounded=0;entryX=0.25;entryY=0;entryDx=0;entryDy=0;fillColor=#dae8fc;strokeColor=#6c8ebf;strokeWidth=2;" parent="1" target="IuKhlvaBpMDBN9rWxlXs-28" edge="1">
          <mxGeometry width="50" height="50" relative="1" as="geometry">
            <mxPoint x="320" y="320" as="sourcePoint" />
            <mxPoint x="440" y="490" as="targetPoint" />
            <Array as="points">
              <mxPoint x="320" y="250" />
              <mxPoint x="807" y="250" />
            </Array>
          </mxGeometry>
        </mxCell>
        <mxCell id="IuKhlvaBpMDBN9rWxlXs-31" value="" style="endArrow=classic;html=1;rounded=0;entryX=0.37;entryY=0.059;entryDx=0;entryDy=0;entryPerimeter=0;exitX=0.75;exitY=0;exitDx=0;exitDy=0;fillColor=#dae8fc;strokeColor=#6c8ebf;strokeWidth=2;" parent="1" source="IuKhlvaBpMDBN9rWxlXs-23" target="IuKhlvaBpMDBN9rWxlXs-29" edge="1">
          <mxGeometry width="50" height="50" relative="1" as="geometry">
            <mxPoint x="390" y="540" as="sourcePoint" />
            <mxPoint x="440" y="490" as="targetPoint" />
            <Array as="points">
              <mxPoint x="560" y="240" />
              <mxPoint x="1043" y="240" />
            </Array>
          </mxGeometry>
        </mxCell>
        <mxCell id="IuKhlvaBpMDBN9rWxlXs-32" value="&lt;font style=&quot;font-size: 16px;&quot;&gt;&lt;b style=&quot;&quot;&gt;DATA&lt;br&gt;(Read)&lt;/b&gt;&lt;/font&gt;" style="rounded=0;whiteSpace=wrap;html=1;" parent="1" vertex="1">
          <mxGeometry x="50" y="100" width="120" height="60" as="geometry" />
        </mxCell>
        <mxCell id="IuKhlvaBpMDBN9rWxlXs-33" value="&lt;span style=&quot;font-size: 16px;&quot;&gt;&lt;b&gt;controller&lt;/b&gt;&lt;/span&gt;" style="rounded=0;whiteSpace=wrap;html=1;" parent="1" vertex="1">
          <mxGeometry x="414" y="100" width="200" height="60" as="geometry" />
        </mxCell>
        <mxCell id="IuKhlvaBpMDBN9rWxlXs-35" value="&lt;span style=&quot;font-size: 16px;&quot;&gt;&lt;b&gt;api-service&lt;br&gt;or facade&lt;/b&gt;&lt;/span&gt;" style="rounded=0;whiteSpace=wrap;html=1;" parent="1" vertex="1">
          <mxGeometry x="200" y="100" width="150" height="60" as="geometry" />
        </mxCell>
        <mxCell id="IuKhlvaBpMDBN9rWxlXs-36" value="" style="endArrow=classic;html=1;rounded=0;exitX=0.25;exitY=0;exitDx=0;exitDy=0;entryX=0.69;entryY=0.992;entryDx=0;entryDy=0;entryPerimeter=0;fillColor=#f8cecc;strokeColor=#b85450;strokeWidth=2;" parent="1" source="IuKhlvaBpMDBN9rWxlXs-20" target="IuKhlvaBpMDBN9rWxlXs-35" edge="1">
          <mxGeometry width="50" height="50" relative="1" as="geometry">
            <mxPoint x="390" y="540" as="sourcePoint" />
            <mxPoint x="440" y="490" as="targetPoint" />
            <Array as="points">
              <mxPoint x="440" y="240" />
              <mxPoint x="304" y="240" />
            </Array>
          </mxGeometry>
        </mxCell>
        <mxCell id="IuKhlvaBpMDBN9rWxlXs-37" value="" style="endArrow=classic;html=1;rounded=0;entryX=0.25;entryY=1;entryDx=0;entryDy=0;exitX=0.5;exitY=0;exitDx=0;exitDy=0;fillColor=#f8cecc;strokeColor=#b85450;strokeWidth=2;" parent="1" source="IuKhlvaBpMDBN9rWxlXs-18" target="IuKhlvaBpMDBN9rWxlXs-35" edge="1">
          <mxGeometry width="50" height="50" relative="1" as="geometry">
            <mxPoint x="390" y="540" as="sourcePoint" />
            <mxPoint x="440" y="490" as="targetPoint" />
            <Array as="points">
              <mxPoint x="110" y="240" />
              <mxPoint x="240" y="240" />
            </Array>
          </mxGeometry>
        </mxCell>
        <mxCell id="IuKhlvaBpMDBN9rWxlXs-39" value="" style="endArrow=classic;html=1;rounded=0;exitX=0.75;exitY=0;exitDx=0;exitDy=0;entryX=0.376;entryY=1.034;entryDx=0;entryDy=0;entryPerimeter=0;fillColor=#dae8fc;strokeColor=#6c8ebf;strokeWidth=2;" parent="1" source="IuKhlvaBpMDBN9rWxlXs-11" target="IuKhlvaBpMDBN9rWxlXs-29" edge="1">
          <mxGeometry width="50" height="50" relative="1" as="geometry">
            <mxPoint x="590" y="560" as="sourcePoint" />
            <mxPoint x="640" y="510" as="targetPoint" />
            <Array as="points">
              <mxPoint x="540" y="440" />
              <mxPoint x="1044" y="440" />
            </Array>
          </mxGeometry>
        </mxCell>
        <mxCell id="IuKhlvaBpMDBN9rWxlXs-41" value="" style="endArrow=classic;html=1;rounded=0;exitX=0;exitY=0.5;exitDx=0;exitDy=0;entryX=0.25;entryY=1;entryDx=0;entryDy=0;fillColor=#dae8fc;strokeColor=light-dark(#126ff3, #5c79a3);strokeWidth=2;" parent="1" source="IuKhlvaBpMDBN9rWxlXs-7" target="IuKhlvaBpMDBN9rWxlXs-28" edge="1">
          <mxGeometry width="50" height="50" relative="1" as="geometry">
            <mxPoint x="700" y="540" as="sourcePoint" />
            <mxPoint x="750" y="490" as="targetPoint" />
            <Array as="points">
              <mxPoint x="20" y="530" />
              <mxPoint x="20" y="800" />
              <mxPoint x="1280" y="800" />
              <mxPoint x="1280" y="410" />
              <mxPoint x="808" y="410" />
            </Array>
          </mxGeometry>
        </mxCell>
        <mxCell id="IuKhlvaBpMDBN9rWxlXs-43" value="" style="endArrow=classic;html=1;rounded=0;exitX=0.5;exitY=1;exitDx=0;exitDy=0;entryX=1;entryY=0.5;entryDx=0;entryDy=0;fillColor=#dae8fc;strokeColor=light-dark(#126ff3, #5c79a3);strokeWidth=2;" parent="1" source="IuKhlvaBpMDBN9rWxlXs-7" target="IuKhlvaBpMDBN9rWxlXs-29" edge="1">
          <mxGeometry width="50" height="50" relative="1" as="geometry">
            <mxPoint x="70" y="520" as="sourcePoint" />
            <mxPoint x="818" y="370" as="targetPoint" />
            <Array as="points">
              <mxPoint x="110" y="840" />
              <mxPoint x="1320" y="840" />
              <mxPoint x="1320" y="330" />
              <mxPoint x="1250" y="330" />
            </Array>
          </mxGeometry>
        </mxCell>
        <mxCell id="IuKhlvaBpMDBN9rWxlXs-45" value="" style="endArrow=classic;html=1;rounded=0;entryX=0.84;entryY=0.167;entryDx=0;entryDy=0;fillColor=#dae8fc;strokeColor=light-dark(#126ff3, #5c79a3);entryPerimeter=0;strokeWidth=2;" parent="1" target="IuKhlvaBpMDBN9rWxlXs-29" edge="1">
          <mxGeometry width="50" height="50" relative="1" as="geometry">
            <mxPoint x="51" y="320" as="sourcePoint" />
            <mxPoint x="818" y="370" as="targetPoint" />
            <Array as="points">
              <mxPoint x="-40" y="320" />
              <mxPoint x="-40" y="520" />
              <mxPoint x="-40" y="880" />
              <mxPoint x="1360" y="880" />
              <mxPoint x="1360" y="240" />
              <mxPoint x="1160" y="240" />
            </Array>
          </mxGeometry>
        </mxCell>
        <mxCell id="IuKhlvaBpMDBN9rWxlXs-47" value="&lt;span style=&quot;font-size: 16px;&quot;&gt;&lt;b&gt;api-service test&lt;/b&gt;&lt;/span&gt;" style="rounded=0;whiteSpace=wrap;html=1;" parent="1" vertex="1">
          <mxGeometry x="770" y="100" width="150" height="60" as="geometry" />
        </mxCell>
        <mxCell id="IuKhlvaBpMDBN9rWxlXs-48" value="" style="endArrow=classic;html=1;rounded=0;exitX=0.75;exitY=0;exitDx=0;exitDy=0;fillColor=#dae8fc;strokeColor=#6c8ebf;strokeWidth=2;" parent="1" source="IuKhlvaBpMDBN9rWxlXs-32" target="IuKhlvaBpMDBN9rWxlXs-47" edge="1">
          <mxGeometry width="50" height="50" relative="1" as="geometry">
            <mxPoint x="700" y="470" as="sourcePoint" />
            <mxPoint x="750" y="420" as="targetPoint" />
            <Array as="points">
              <mxPoint x="140" y="40" />
              <mxPoint x="840" y="40" />
            </Array>
          </mxGeometry>
        </mxCell>
        <mxCell id="IuKhlvaBpMDBN9rWxlXs-49" value="" style="endArrow=classic;html=1;rounded=0;entryX=0.25;entryY=0;entryDx=0;entryDy=0;exitX=0.75;exitY=0;exitDx=0;exitDy=0;fillColor=#dae8fc;strokeColor=#6c8ebf;strokeWidth=2;" parent="1" source="IuKhlvaBpMDBN9rWxlXs-35" target="IuKhlvaBpMDBN9rWxlXs-47" edge="1">
          <mxGeometry width="50" height="50" relative="1" as="geometry">
            <mxPoint x="1620" y="290" as="sourcePoint" />
            <mxPoint x="750" y="420" as="targetPoint" />
            <Array as="points">
              <mxPoint x="313" y="50" />
              <mxPoint x="808" y="50" />
            </Array>
          </mxGeometry>
        </mxCell>
        <mxCell id="IuKhlvaBpMDBN9rWxlXs-50" value="" style="endArrow=classic;html=1;rounded=0;entryX=0.25;entryY=1;entryDx=0;entryDy=0;exitX=0.75;exitY=0;exitDx=0;exitDy=0;fillColor=#dae8fc;strokeColor=#6c8ebf;strokeWidth=2;" parent="1" source="IuKhlvaBpMDBN9rWxlXs-18" target="IuKhlvaBpMDBN9rWxlXs-47" edge="1">
          <mxGeometry width="50" height="50" relative="1" as="geometry">
            <mxPoint x="700" y="470" as="sourcePoint" />
            <mxPoint x="750" y="420" as="targetPoint" />
            <Array as="points">
              <mxPoint x="140" y="200" />
              <mxPoint x="808" y="200" />
            </Array>
          </mxGeometry>
        </mxCell>
        <mxCell id="IuKhlvaBpMDBN9rWxlXs-51" value="" style="endArrow=classic;html=1;rounded=0;entryX=0.5;entryY=1;entryDx=0;entryDy=0;exitX=0.25;exitY=0;exitDx=0;exitDy=0;fillColor=#dae8fc;strokeColor=#6c8ebf;strokeWidth=2;" parent="1" source="IuKhlvaBpMDBN9rWxlXs-29" target="IuKhlvaBpMDBN9rWxlXs-47" edge="1">
          <mxGeometry width="50" height="50" relative="1" as="geometry">
            <mxPoint x="700" y="470" as="sourcePoint" />
            <mxPoint x="750" y="420" as="targetPoint" />
            <Array as="points">
              <mxPoint x="1013" y="200" />
              <mxPoint x="840" y="200" />
            </Array>
          </mxGeometry>
        </mxCell>
        <mxCell id="IuKhlvaBpMDBN9rWxlXs-54" value="&lt;b&gt;&lt;font style=&quot;font-size: 20px;&quot;&gt;Layered spring boot app&lt;/font&gt;&lt;/b&gt;" style="text;html=1;align=center;verticalAlign=middle;whiteSpace=wrap;rounded=0;" parent="1" vertex="1">
          <mxGeometry x="-40" y="-50" width="310" height="30" as="geometry" />
        </mxCell>
        <mxCell id="IuKhlvaBpMDBN9rWxlXs-55" value="&lt;b&gt;&lt;font style=&quot;font-size: 20px;&quot;&gt;/main&lt;/font&gt;&lt;/b&gt;" style="text;html=1;align=center;verticalAlign=middle;whiteSpace=wrap;rounded=0;" parent="1" vertex="1">
          <mxGeometry x="520" y="10" width="140" height="30" as="geometry" />
        </mxCell>
        <mxCell id="IuKhlvaBpMDBN9rWxlXs-56" value="&lt;b&gt;&lt;font style=&quot;font-size: 20px;&quot;&gt;/test&lt;/font&gt;&lt;/b&gt;" style="text;html=1;align=center;verticalAlign=middle;whiteSpace=wrap;rounded=0;" parent="1" vertex="1">
          <mxGeometry x="1060" y="10" width="140" height="30" as="geometry" />
        </mxCell>
        <mxCell id="IuKhlvaBpMDBN9rWxlXs-57" value="&lt;b&gt;&lt;font style=&quot;font-size: 20px;&quot;&gt;/web&lt;/font&gt;&lt;/b&gt;" style="text;html=1;align=center;verticalAlign=middle;whiteSpace=wrap;rounded=0;" parent="1" vertex="1">
          <mxGeometry x="-10" y="60" width="140" height="30" as="geometry" />
        </mxCell>
        <mxCell id="IuKhlvaBpMDBN9rWxlXs-58" value="&lt;b&gt;&lt;font style=&quot;font-size: 20px;&quot;&gt;/domain&lt;/font&gt;&lt;/b&gt;" style="text;html=1;align=center;verticalAlign=middle;whiteSpace=wrap;rounded=0;" parent="1" vertex="1">
          <mxGeometry x="-10" y="270" width="140" height="30" as="geometry" />
        </mxCell>
        <mxCell id="IuKhlvaBpMDBN9rWxlXs-60" value="&lt;b&gt;&lt;font style=&quot;font-size: 20px;&quot;&gt;/infra&lt;/font&gt;&lt;/b&gt;" style="text;html=1;align=center;verticalAlign=middle;whiteSpace=wrap;rounded=0;" parent="1" vertex="1">
          <mxGeometry x="-10" y="470" width="140" height="30" as="geometry" />
        </mxCell>
        <mxCell id="IuKhlvaBpMDBN9rWxlXs-61" value="" style="endArrow=classic;html=1;rounded=0;exitX=1;exitY=0.5;exitDx=0;exitDy=0;strokeWidth=2;" parent="1" source="IuKhlvaBpMDBN9rWxlXs-7" target="IuKhlvaBpMDBN9rWxlXs-10" edge="1">
          <mxGeometry width="50" height="50" relative="1" as="geometry">
            <mxPoint x="340" y="460" as="sourcePoint" />
            <mxPoint x="390" y="410" as="targetPoint" />
          </mxGeometry>
        </mxCell>
        <mxCell id="IuKhlvaBpMDBN9rWxlXs-62" value="" style="endArrow=classic;html=1;rounded=0;exitX=1;exitY=0.5;exitDx=0;exitDy=0;strokeWidth=2;entryX=0;entryY=0.5;entryDx=0;entryDy=0;" parent="1" source="IuKhlvaBpMDBN9rWxlXs-18" target="IuKhlvaBpMDBN9rWxlXs-21" edge="1">
          <mxGeometry width="50" height="50" relative="1" as="geometry">
            <mxPoint x="180" y="540" as="sourcePoint" />
            <mxPoint x="220" y="540" as="targetPoint" />
          </mxGeometry>
        </mxCell>
        <mxCell id="IuKhlvaBpMDBN9rWxlXs-63" value="" style="endArrow=classic;html=1;rounded=0;strokeWidth=2;entryX=0;entryY=0.5;entryDx=0;entryDy=0;" parent="1" source="IuKhlvaBpMDBN9rWxlXs-32" target="IuKhlvaBpMDBN9rWxlXs-35" edge="1">
          <mxGeometry width="50" height="50" relative="1" as="geometry">
            <mxPoint x="180" y="340" as="sourcePoint" />
            <mxPoint x="200" y="340" as="targetPoint" />
          </mxGeometry>
        </mxCell>
      </root>
    </mxGraphModel>
  </diagram>
  <diagram id="-H2Hs4r80nsyXuHlAXKi" name="페이지-2">
    <mxGraphModel dx="2957" dy="2598" grid="1" gridSize="10" guides="1" tooltips="1" connect="1" arrows="1" fold="1" page="1" pageScale="1" pageWidth="827" pageHeight="1169" math="0" shadow="0">
      <root>
        <mxCell id="0" />
        <mxCell id="1" parent="0" />
        <mxCell id="RFhGDE8mao0WP0tSnoM4-1" value="" style="rounded=0;whiteSpace=wrap;html=1;fillColor=#f5f5f5;fontColor=#333333;strokeColor=#666666;" vertex="1" parent="1">
          <mxGeometry x="-90" y="-10" width="1330" height="780" as="geometry" />
        </mxCell>
        <mxCell id="RFhGDE8mao0WP0tSnoM4-2" value="" style="rounded=0;whiteSpace=wrap;html=1;fillColor=light-dark(#fff5d6, #281d00);strokeColor=#FFFFCC;" vertex="1" parent="1">
          <mxGeometry x="710" width="520" height="740" as="geometry" />
        </mxCell>
        <mxCell id="RFhGDE8mao0WP0tSnoM4-3" value="" style="rounded=0;whiteSpace=wrap;html=1;fillColor=#CCFFCC;strokeColor=#82b366;" vertex="1" parent="1">
          <mxGeometry x="-20" width="700" height="740" as="geometry" />
        </mxCell>
        <mxCell id="RFhGDE8mao0WP0tSnoM4-4" value="" style="rounded=1;whiteSpace=wrap;html=1;fillColor=#f5f5f5;fontColor=#333333;strokeColor=#666666;" vertex="1" parent="1">
          <mxGeometry y="50" width="1200" height="160" as="geometry" />
        </mxCell>
        <mxCell id="RFhGDE8mao0WP0tSnoM4-5" value="" style="rounded=1;whiteSpace=wrap;html=1;fillColor=#f5f5f5;strokeColor=#666666;fontColor=#333333;" vertex="1" parent="1">
          <mxGeometry y="260" width="1200" height="160" as="geometry" />
        </mxCell>
        <mxCell id="RFhGDE8mao0WP0tSnoM4-6" value="" style="rounded=1;whiteSpace=wrap;html=1;fillColor=#f5f5f5;strokeColor=#666666;fontColor=#333333;" vertex="1" parent="1">
          <mxGeometry y="450" width="1220" height="160" as="geometry" />
        </mxCell>
        <mxCell id="RFhGDE8mao0WP0tSnoM4-7" value="&lt;font style=&quot;font-size: 16px;&quot;&gt;&lt;b style=&quot;&quot;&gt;DATA(entity)&lt;/b&gt;&lt;/font&gt;" style="rounded=0;whiteSpace=wrap;html=1;fillColor=#f8cecc;strokeColor=#b85450;" vertex="1" parent="1">
          <mxGeometry x="50" y="500" width="120" height="60" as="geometry" />
        </mxCell>
        <mxCell id="RFhGDE8mao0WP0tSnoM4-8" value="&lt;font style=&quot;font-size: 16px;&quot;&gt;&lt;b style=&quot;&quot;&gt;entity-repo&lt;br&gt;(jpa, jdbc ...)&lt;/b&gt;&lt;/font&gt;" style="rounded=0;whiteSpace=wrap;html=1;" vertex="1" parent="1">
          <mxGeometry x="210" y="500" width="120" height="60" as="geometry" />
        </mxCell>
        <mxCell id="RFhGDE8mao0WP0tSnoM4-9" value="&lt;font style=&quot;font-size: 16px;&quot;&gt;&lt;b style=&quot;&quot;&gt;repo-명세(인터페이스)&lt;/b&gt;&lt;/font&gt;" style="rounded=0;whiteSpace=wrap;html=1;fillColor=#f8cecc;strokeColor=#b85450;" vertex="1" parent="1">
          <mxGeometry x="417.5" y="500" width="165" height="60" as="geometry" />
        </mxCell>
        <mxCell id="RFhGDE8mao0WP0tSnoM4-10" value="&lt;font style=&quot;font-size: 16px;&quot;&gt;&lt;b style=&quot;&quot;&gt;구현체 테스트&lt;/b&gt;&lt;/font&gt;" style="rounded=0;whiteSpace=wrap;html=1;" vertex="1" parent="1">
          <mxGeometry x="770" y="500" width="150" height="60" as="geometry" />
        </mxCell>
        <mxCell id="RFhGDE8mao0WP0tSnoM4-11" value="" style="endArrow=classic;html=1;rounded=0;exitX=0.5;exitY=1;exitDx=0;exitDy=0;entryX=0.465;entryY=1.02;entryDx=0;entryDy=0;entryPerimeter=0;fillColor=#dae8fc;strokeColor=#6c8ebf;strokeWidth=2;" edge="1" parent="1" source="RFhGDE8mao0WP0tSnoM4-8" target="RFhGDE8mao0WP0tSnoM4-10">
          <mxGeometry width="50" height="50" relative="1" as="geometry">
            <mxPoint x="390" y="540" as="sourcePoint" />
            <mxPoint x="845" y="540" as="targetPoint" />
            <Array as="points">
              <mxPoint x="270" y="720" />
              <mxPoint x="840" y="720" />
            </Array>
          </mxGeometry>
        </mxCell>
        <mxCell id="RFhGDE8mao0WP0tSnoM4-12" value="&lt;font style=&quot;font-size: 16px;&quot;&gt;&lt;b style=&quot;&quot;&gt;명세에 대한 fixture&lt;br&gt;(for 상위 레이어 테스트)&lt;/b&gt;&lt;/font&gt;" style="rounded=0;whiteSpace=wrap;html=1;" vertex="1" parent="1">
          <mxGeometry x="950" y="500" width="250" height="60" as="geometry" />
        </mxCell>
        <mxCell id="RFhGDE8mao0WP0tSnoM4-13" value="" style="endArrow=classic;html=1;rounded=0;exitX=0.5;exitY=1;exitDx=0;exitDy=0;entryX=0.529;entryY=1.059;entryDx=0;entryDy=0;entryPerimeter=0;fillColor=#dae8fc;strokeColor=#6c8ebf;strokeWidth=2;" edge="1" parent="1" source="RFhGDE8mao0WP0tSnoM4-9" target="RFhGDE8mao0WP0tSnoM4-12">
          <mxGeometry width="50" height="50" relative="1" as="geometry">
            <mxPoint x="390" y="540" as="sourcePoint" />
            <mxPoint x="1000" y="530" as="targetPoint" />
            <Array as="points">
              <mxPoint x="500" y="650" />
              <mxPoint x="1082" y="650" />
            </Array>
          </mxGeometry>
        </mxCell>
        <mxCell id="RFhGDE8mao0WP0tSnoM4-14" value="&lt;font style=&quot;font-size: 16px;&quot;&gt;&lt;b style=&quot;&quot;&gt;DATA&lt;br&gt;(domain-spec)&lt;/b&gt;&lt;/font&gt;" style="rounded=0;whiteSpace=wrap;html=1;fillColor=#f8cecc;strokeColor=#b85450;" vertex="1" parent="1">
          <mxGeometry x="50" y="300" width="120" height="60" as="geometry" />
        </mxCell>
        <mxCell id="RFhGDE8mao0WP0tSnoM4-15" value="&lt;span style=&quot;font-size: 16px;&quot;&gt;&lt;b&gt;domain-api-interface&lt;/b&gt;&lt;/span&gt;" style="rounded=0;whiteSpace=wrap;html=1;fillColor=#f8cecc;strokeColor=#b85450;" vertex="1" parent="1">
          <mxGeometry x="390" y="300" width="200" height="60" as="geometry" />
        </mxCell>
        <mxCell id="RFhGDE8mao0WP0tSnoM4-16" value="&lt;span style=&quot;font-size: 16px;&quot;&gt;&lt;b&gt;domain-api-impl&lt;/b&gt;&lt;/span&gt;" style="rounded=0;whiteSpace=wrap;html=1;" vertex="1" parent="1">
          <mxGeometry x="190" y="300" width="150" height="60" as="geometry" />
        </mxCell>
        <mxCell id="RFhGDE8mao0WP0tSnoM4-17" value="&lt;span style=&quot;font-size: 16px;&quot;&gt;&lt;b&gt;domain-api-interface&lt;/b&gt;&lt;/span&gt;" style="rounded=0;whiteSpace=wrap;html=1;fillColor=#f8cecc;strokeColor=#b85450;" vertex="1" parent="1">
          <mxGeometry x="400" y="310" width="200" height="60" as="geometry" />
        </mxCell>
        <mxCell id="RFhGDE8mao0WP0tSnoM4-18" value="&lt;span style=&quot;font-size: 16px;&quot;&gt;&lt;b&gt;domain-api-interface&lt;/b&gt;&lt;/span&gt;" style="rounded=0;whiteSpace=wrap;html=1;fillColor=#f8cecc;strokeColor=#b85450;" vertex="1" parent="1">
          <mxGeometry x="410" y="320" width="200" height="60" as="geometry" />
        </mxCell>
        <mxCell id="RFhGDE8mao0WP0tSnoM4-19" value="&lt;span style=&quot;font-size: 16px;&quot;&gt;&lt;b&gt;domain-api-impl&lt;/b&gt;&lt;/span&gt;" style="rounded=0;whiteSpace=wrap;html=1;" vertex="1" parent="1">
          <mxGeometry x="200" y="310" width="150" height="60" as="geometry" />
        </mxCell>
        <mxCell id="RFhGDE8mao0WP0tSnoM4-20" value="&lt;span style=&quot;font-size: 16px;&quot;&gt;&lt;b&gt;domain-api-impl&lt;/b&gt;&lt;/span&gt;" style="rounded=0;whiteSpace=wrap;html=1;" vertex="1" parent="1">
          <mxGeometry x="210" y="320" width="150" height="60" as="geometry" />
        </mxCell>
        <mxCell id="RFhGDE8mao0WP0tSnoM4-21" value="" style="endArrow=classic;html=1;rounded=0;exitX=0.5;exitY=0;exitDx=0;exitDy=0;entryX=0.75;entryY=1;entryDx=0;entryDy=0;fillColor=#f8cecc;strokeColor=#b85450;strokeWidth=2;" edge="1" parent="1" source="RFhGDE8mao0WP0tSnoM4-9" target="RFhGDE8mao0WP0tSnoM4-20">
          <mxGeometry width="50" height="50" relative="1" as="geometry">
            <mxPoint x="502.5" y="480" as="sourcePoint" />
            <mxPoint x="325" y="380" as="targetPoint" />
            <Array as="points">
              <mxPoint x="500" y="440" />
              <mxPoint x="320" y="440" />
            </Array>
          </mxGeometry>
        </mxCell>
        <mxCell id="RFhGDE8mao0WP0tSnoM4-22" value="" style="endArrow=classic;html=1;rounded=0;exitX=0.5;exitY=0;exitDx=0;exitDy=0;fillColor=#f8cecc;strokeColor=#b85450;strokeWidth=2;" edge="1" parent="1" source="RFhGDE8mao0WP0tSnoM4-7">
          <mxGeometry width="50" height="50" relative="1" as="geometry">
            <mxPoint x="390" y="540" as="sourcePoint" />
            <mxPoint x="240" y="381" as="targetPoint" />
            <Array as="points">
              <mxPoint x="110" y="440" />
              <mxPoint x="240" y="440" />
            </Array>
          </mxGeometry>
        </mxCell>
        <mxCell id="RFhGDE8mao0WP0tSnoM4-23" value="&lt;font style=&quot;font-size: 16px;&quot;&gt;&lt;b style=&quot;&quot;&gt;구현체 테스트&lt;/b&gt;&lt;/font&gt;" style="rounded=0;whiteSpace=wrap;html=1;" vertex="1" parent="1">
          <mxGeometry x="770" y="300" width="150" height="60" as="geometry" />
        </mxCell>
        <mxCell id="RFhGDE8mao0WP0tSnoM4-24" value="&lt;font style=&quot;font-size: 16px;&quot;&gt;&lt;b style=&quot;&quot;&gt;명세에 대한 fixture&lt;br&gt;(for 상위 레이어 테스트)&lt;/b&gt;&lt;/font&gt;" style="rounded=0;whiteSpace=wrap;html=1;" vertex="1" parent="1">
          <mxGeometry x="950" y="300" width="250" height="60" as="geometry" />
        </mxCell>
        <mxCell id="RFhGDE8mao0WP0tSnoM4-25" value="" style="endArrow=classic;html=1;rounded=0;entryX=0.25;entryY=0;entryDx=0;entryDy=0;fillColor=#dae8fc;strokeColor=#6c8ebf;strokeWidth=2;" edge="1" parent="1" target="RFhGDE8mao0WP0tSnoM4-23">
          <mxGeometry width="50" height="50" relative="1" as="geometry">
            <mxPoint x="320" y="320" as="sourcePoint" />
            <mxPoint x="440" y="490" as="targetPoint" />
            <Array as="points">
              <mxPoint x="320" y="250" />
              <mxPoint x="807" y="250" />
            </Array>
          </mxGeometry>
        </mxCell>
        <mxCell id="RFhGDE8mao0WP0tSnoM4-26" value="" style="endArrow=classic;html=1;rounded=0;entryX=0.37;entryY=0.059;entryDx=0;entryDy=0;entryPerimeter=0;exitX=0.75;exitY=0;exitDx=0;exitDy=0;fillColor=#dae8fc;strokeColor=#6c8ebf;strokeWidth=2;" edge="1" parent="1" source="RFhGDE8mao0WP0tSnoM4-18" target="RFhGDE8mao0WP0tSnoM4-24">
          <mxGeometry width="50" height="50" relative="1" as="geometry">
            <mxPoint x="390" y="540" as="sourcePoint" />
            <mxPoint x="440" y="490" as="targetPoint" />
            <Array as="points">
              <mxPoint x="560" y="240" />
              <mxPoint x="1043" y="240" />
            </Array>
          </mxGeometry>
        </mxCell>
        <mxCell id="RFhGDE8mao0WP0tSnoM4-27" value="&lt;font style=&quot;font-size: 16px;&quot;&gt;&lt;b style=&quot;&quot;&gt;DATA&lt;br&gt;(Read)&lt;/b&gt;&lt;/font&gt;" style="rounded=0;whiteSpace=wrap;html=1;fillColor=#f8cecc;strokeColor=#b85450;" vertex="1" parent="1">
          <mxGeometry x="10" y="100" width="120" height="60" as="geometry" />
        </mxCell>
        <mxCell id="RFhGDE8mao0WP0tSnoM4-28" value="&lt;span style=&quot;font-size: 16px;&quot;&gt;&lt;b&gt;controller&lt;/b&gt;&lt;/span&gt;" style="rounded=0;whiteSpace=wrap;html=1;" vertex="1" parent="1">
          <mxGeometry x="432.5" y="60" width="150" height="30" as="geometry" />
        </mxCell>
        <mxCell id="RFhGDE8mao0WP0tSnoM4-29" value="&lt;span style=&quot;font-size: 16px;&quot;&gt;&lt;b&gt;api-service-impl&lt;br&gt;&lt;/b&gt;&lt;/span&gt;" style="rounded=0;whiteSpace=wrap;html=1;" vertex="1" parent="1">
          <mxGeometry x="200" y="100" width="150" height="60" as="geometry" />
        </mxCell>
        <mxCell id="RFhGDE8mao0WP0tSnoM4-30" value="" style="endArrow=classic;html=1;rounded=0;exitX=0.25;exitY=0;exitDx=0;exitDy=0;entryX=0.69;entryY=0.992;entryDx=0;entryDy=0;entryPerimeter=0;fillColor=#f8cecc;strokeColor=#b85450;strokeWidth=2;" edge="1" parent="1" source="RFhGDE8mao0WP0tSnoM4-15" target="RFhGDE8mao0WP0tSnoM4-29">
          <mxGeometry width="50" height="50" relative="1" as="geometry">
            <mxPoint x="390" y="540" as="sourcePoint" />
            <mxPoint x="440" y="490" as="targetPoint" />
            <Array as="points">
              <mxPoint x="440" y="240" />
              <mxPoint x="304" y="240" />
            </Array>
          </mxGeometry>
        </mxCell>
        <mxCell id="RFhGDE8mao0WP0tSnoM4-31" value="" style="endArrow=classic;html=1;rounded=0;entryX=0.25;entryY=1;entryDx=0;entryDy=0;exitX=0.5;exitY=0;exitDx=0;exitDy=0;fillColor=#f8cecc;strokeColor=#b85450;strokeWidth=2;" edge="1" parent="1" source="RFhGDE8mao0WP0tSnoM4-14" target="RFhGDE8mao0WP0tSnoM4-29">
          <mxGeometry width="50" height="50" relative="1" as="geometry">
            <mxPoint x="390" y="540" as="sourcePoint" />
            <mxPoint x="440" y="490" as="targetPoint" />
            <Array as="points">
              <mxPoint x="110" y="240" />
              <mxPoint x="240" y="240" />
            </Array>
          </mxGeometry>
        </mxCell>
        <mxCell id="RFhGDE8mao0WP0tSnoM4-32" value="" style="endArrow=classic;html=1;rounded=0;exitX=0.75;exitY=0;exitDx=0;exitDy=0;entryX=0.376;entryY=1.034;entryDx=0;entryDy=0;entryPerimeter=0;fillColor=#dae8fc;strokeColor=#6c8ebf;strokeWidth=2;" edge="1" parent="1" source="RFhGDE8mao0WP0tSnoM4-9" target="RFhGDE8mao0WP0tSnoM4-24">
          <mxGeometry width="50" height="50" relative="1" as="geometry">
            <mxPoint x="590" y="560" as="sourcePoint" />
            <mxPoint x="640" y="510" as="targetPoint" />
            <Array as="points">
              <mxPoint x="540" y="440" />
              <mxPoint x="1044" y="440" />
            </Array>
          </mxGeometry>
        </mxCell>
        <mxCell id="RFhGDE8mao0WP0tSnoM4-33" value="" style="endArrow=classic;html=1;rounded=0;exitX=0;exitY=0.5;exitDx=0;exitDy=0;entryX=0.25;entryY=1;entryDx=0;entryDy=0;fillColor=#dae8fc;strokeColor=light-dark(#126ff3, #5c79a3);strokeWidth=2;" edge="1" parent="1" source="RFhGDE8mao0WP0tSnoM4-7" target="RFhGDE8mao0WP0tSnoM4-23">
          <mxGeometry width="50" height="50" relative="1" as="geometry">
            <mxPoint x="700" y="540" as="sourcePoint" />
            <mxPoint x="750" y="490" as="targetPoint" />
            <Array as="points">
              <mxPoint x="20" y="530" />
              <mxPoint x="20" y="800" />
              <mxPoint x="1280" y="800" />
              <mxPoint x="1280" y="410" />
              <mxPoint x="808" y="410" />
            </Array>
          </mxGeometry>
        </mxCell>
        <mxCell id="RFhGDE8mao0WP0tSnoM4-34" value="" style="endArrow=classic;html=1;rounded=0;exitX=0.5;exitY=1;exitDx=0;exitDy=0;entryX=1;entryY=0.5;entryDx=0;entryDy=0;fillColor=#dae8fc;strokeColor=light-dark(#126ff3, #5c79a3);strokeWidth=2;" edge="1" parent="1" source="RFhGDE8mao0WP0tSnoM4-7" target="RFhGDE8mao0WP0tSnoM4-24">
          <mxGeometry width="50" height="50" relative="1" as="geometry">
            <mxPoint x="70" y="520" as="sourcePoint" />
            <mxPoint x="818" y="370" as="targetPoint" />
            <Array as="points">
              <mxPoint x="110" y="840" />
              <mxPoint x="1320" y="840" />
              <mxPoint x="1320" y="330" />
              <mxPoint x="1250" y="330" />
            </Array>
          </mxGeometry>
        </mxCell>
        <mxCell id="RFhGDE8mao0WP0tSnoM4-35" value="" style="endArrow=classic;html=1;rounded=0;entryX=0.84;entryY=0.167;entryDx=0;entryDy=0;fillColor=#dae8fc;strokeColor=light-dark(#126ff3, #5c79a3);entryPerimeter=0;strokeWidth=2;" edge="1" parent="1" target="RFhGDE8mao0WP0tSnoM4-24">
          <mxGeometry width="50" height="50" relative="1" as="geometry">
            <mxPoint x="51" y="320" as="sourcePoint" />
            <mxPoint x="818" y="370" as="targetPoint" />
            <Array as="points">
              <mxPoint x="-40" y="320" />
              <mxPoint x="-40" y="520" />
              <mxPoint x="-40" y="880" />
              <mxPoint x="1360" y="880" />
              <mxPoint x="1360" y="240" />
              <mxPoint x="1160" y="240" />
            </Array>
          </mxGeometry>
        </mxCell>
        <mxCell id="RFhGDE8mao0WP0tSnoM4-36" value="&lt;span style=&quot;font-size: 16px;&quot;&gt;&lt;b&gt;api-service 테스트&lt;/b&gt;&lt;/span&gt;" style="rounded=0;whiteSpace=wrap;html=1;" vertex="1" parent="1">
          <mxGeometry x="770" y="100" width="150" height="60" as="geometry" />
        </mxCell>
        <mxCell id="RFhGDE8mao0WP0tSnoM4-37" value="" style="endArrow=classic;html=1;rounded=0;exitX=0.75;exitY=0;exitDx=0;exitDy=0;fillColor=#dae8fc;strokeColor=#6c8ebf;strokeWidth=2;" edge="1" parent="1" source="RFhGDE8mao0WP0tSnoM4-27" target="RFhGDE8mao0WP0tSnoM4-36">
          <mxGeometry width="50" height="50" relative="1" as="geometry">
            <mxPoint x="700" y="470" as="sourcePoint" />
            <mxPoint x="750" y="420" as="targetPoint" />
            <Array as="points">
              <mxPoint x="100" y="40" />
              <mxPoint x="840" y="40" />
            </Array>
          </mxGeometry>
        </mxCell>
        <mxCell id="RFhGDE8mao0WP0tSnoM4-38" value="" style="endArrow=classic;html=1;rounded=0;entryX=0.25;entryY=0;entryDx=0;entryDy=0;exitX=0.75;exitY=0;exitDx=0;exitDy=0;fillColor=#dae8fc;strokeColor=#6c8ebf;strokeWidth=2;" edge="1" parent="1" source="RFhGDE8mao0WP0tSnoM4-29" target="RFhGDE8mao0WP0tSnoM4-36">
          <mxGeometry width="50" height="50" relative="1" as="geometry">
            <mxPoint x="1620" y="290" as="sourcePoint" />
            <mxPoint x="750" y="420" as="targetPoint" />
            <Array as="points">
              <mxPoint x="313" y="50" />
              <mxPoint x="808" y="50" />
            </Array>
          </mxGeometry>
        </mxCell>
        <mxCell id="RFhGDE8mao0WP0tSnoM4-39" value="" style="endArrow=classic;html=1;rounded=0;entryX=0.25;entryY=1;entryDx=0;entryDy=0;exitX=0.75;exitY=0;exitDx=0;exitDy=0;fillColor=#dae8fc;strokeColor=#6c8ebf;strokeWidth=2;" edge="1" parent="1" source="RFhGDE8mao0WP0tSnoM4-14" target="RFhGDE8mao0WP0tSnoM4-36">
          <mxGeometry width="50" height="50" relative="1" as="geometry">
            <mxPoint x="700" y="470" as="sourcePoint" />
            <mxPoint x="750" y="420" as="targetPoint" />
            <Array as="points">
              <mxPoint x="140" y="200" />
              <mxPoint x="808" y="200" />
            </Array>
          </mxGeometry>
        </mxCell>
        <mxCell id="RFhGDE8mao0WP0tSnoM4-40" value="" style="endArrow=classic;html=1;rounded=0;entryX=0.5;entryY=1;entryDx=0;entryDy=0;exitX=0.25;exitY=0;exitDx=0;exitDy=0;fillColor=#dae8fc;strokeColor=#6c8ebf;strokeWidth=2;" edge="1" parent="1" source="RFhGDE8mao0WP0tSnoM4-24" target="RFhGDE8mao0WP0tSnoM4-36">
          <mxGeometry width="50" height="50" relative="1" as="geometry">
            <mxPoint x="700" y="470" as="sourcePoint" />
            <mxPoint x="750" y="420" as="targetPoint" />
            <Array as="points">
              <mxPoint x="1013" y="200" />
              <mxPoint x="840" y="200" />
            </Array>
          </mxGeometry>
        </mxCell>
        <mxCell id="RFhGDE8mao0WP0tSnoM4-41" value="&lt;b&gt;&lt;font style=&quot;font-size: 20px;&quot;&gt;Layered spring boot app&lt;/font&gt;&lt;/b&gt;" style="text;html=1;align=center;verticalAlign=middle;whiteSpace=wrap;rounded=0;" vertex="1" parent="1">
          <mxGeometry x="-40" y="-50" width="310" height="30" as="geometry" />
        </mxCell>
        <mxCell id="RFhGDE8mao0WP0tSnoM4-42" value="&lt;b&gt;&lt;font style=&quot;font-size: 20px;&quot;&gt;/main&lt;/font&gt;&lt;/b&gt;" style="text;html=1;align=center;verticalAlign=middle;whiteSpace=wrap;rounded=0;" vertex="1" parent="1">
          <mxGeometry x="520" y="10" width="140" height="30" as="geometry" />
        </mxCell>
        <mxCell id="RFhGDE8mao0WP0tSnoM4-43" value="&lt;b&gt;&lt;font style=&quot;font-size: 20px;&quot;&gt;/test&lt;/font&gt;&lt;/b&gt;" style="text;html=1;align=center;verticalAlign=middle;whiteSpace=wrap;rounded=0;" vertex="1" parent="1">
          <mxGeometry x="1060" y="10" width="140" height="30" as="geometry" />
        </mxCell>
        <mxCell id="RFhGDE8mao0WP0tSnoM4-44" value="&lt;b&gt;&lt;font style=&quot;font-size: 20px;&quot;&gt;/web&lt;/font&gt;&lt;/b&gt;" style="text;html=1;align=center;verticalAlign=middle;whiteSpace=wrap;rounded=0;" vertex="1" parent="1">
          <mxGeometry x="-10" y="60" width="140" height="30" as="geometry" />
        </mxCell>
        <mxCell id="RFhGDE8mao0WP0tSnoM4-45" value="&lt;b&gt;&lt;font style=&quot;font-size: 20px;&quot;&gt;/domain&lt;/font&gt;&lt;/b&gt;" style="text;html=1;align=center;verticalAlign=middle;whiteSpace=wrap;rounded=0;" vertex="1" parent="1">
          <mxGeometry x="-10" y="270" width="140" height="30" as="geometry" />
        </mxCell>
        <mxCell id="RFhGDE8mao0WP0tSnoM4-46" value="&lt;b&gt;&lt;font style=&quot;font-size: 20px;&quot;&gt;/infra&lt;/font&gt;&lt;/b&gt;" style="text;html=1;align=center;verticalAlign=middle;whiteSpace=wrap;rounded=0;" vertex="1" parent="1">
          <mxGeometry x="-10" y="470" width="140" height="30" as="geometry" />
        </mxCell>
        <mxCell id="RFhGDE8mao0WP0tSnoM4-47" value="" style="endArrow=classic;html=1;rounded=0;exitX=1;exitY=0.5;exitDx=0;exitDy=0;strokeWidth=2;" edge="1" parent="1" source="RFhGDE8mao0WP0tSnoM4-7" target="RFhGDE8mao0WP0tSnoM4-8">
          <mxGeometry width="50" height="50" relative="1" as="geometry">
            <mxPoint x="340" y="460" as="sourcePoint" />
            <mxPoint x="390" y="410" as="targetPoint" />
          </mxGeometry>
        </mxCell>
        <mxCell id="RFhGDE8mao0WP0tSnoM4-48" value="" style="endArrow=classic;html=1;rounded=0;exitX=1;exitY=0.5;exitDx=0;exitDy=0;strokeWidth=2;entryX=0;entryY=0.5;entryDx=0;entryDy=0;" edge="1" parent="1" source="RFhGDE8mao0WP0tSnoM4-14" target="RFhGDE8mao0WP0tSnoM4-16">
          <mxGeometry width="50" height="50" relative="1" as="geometry">
            <mxPoint x="180" y="540" as="sourcePoint" />
            <mxPoint x="220" y="540" as="targetPoint" />
          </mxGeometry>
        </mxCell>
        <mxCell id="RFhGDE8mao0WP0tSnoM4-49" value="" style="endArrow=classic;html=1;rounded=0;strokeWidth=2;entryX=0;entryY=0.5;entryDx=0;entryDy=0;" edge="1" parent="1" source="RFhGDE8mao0WP0tSnoM4-27" target="RFhGDE8mao0WP0tSnoM4-29">
          <mxGeometry width="50" height="50" relative="1" as="geometry">
            <mxPoint x="180" y="340" as="sourcePoint" />
            <mxPoint x="200" y="340" as="targetPoint" />
          </mxGeometry>
        </mxCell>
        <mxCell id="RFhGDE8mao0WP0tSnoM4-50" value="&lt;span style=&quot;font-size: 16px;&quot;&gt;&lt;b&gt;api-service&lt;br&gt;(인터페이스 명세)&lt;/b&gt;&lt;/span&gt;" style="rounded=0;whiteSpace=wrap;html=1;fillColor=#f8cecc;strokeColor=#b85450;" vertex="1" parent="1">
          <mxGeometry x="425" y="100" width="150" height="60" as="geometry" />
        </mxCell>
      </root>
    </mxGraphModel>
  </diagram>
  <diagram id="pqPc4FRct-djMkHTeqjc" name="페이지-3">
    <mxGraphModel dx="2957" dy="2598" grid="1" gridSize="10" guides="1" tooltips="1" connect="1" arrows="1" fold="1" page="1" pageScale="1" pageWidth="827" pageHeight="1169" math="0" shadow="0">
      <root>
        <mxCell id="0" />
        <mxCell id="1" parent="0" />
        <mxCell id="iWIZ8b2wkrw0TYT5FTCW-1" value="" style="rounded=0;whiteSpace=wrap;html=1;fillColor=#f5f5f5;fontColor=#333333;strokeColor=#666666;" vertex="1" parent="1">
          <mxGeometry x="-90" y="-10" width="1330" height="780" as="geometry" />
        </mxCell>
        <mxCell id="iWIZ8b2wkrw0TYT5FTCW-2" value="" style="rounded=0;whiteSpace=wrap;html=1;fillColor=#FFFEA5;strokeColor=#d6b656;" vertex="1" parent="1">
          <mxGeometry x="710" width="520" height="740" as="geometry" />
        </mxCell>
        <mxCell id="iWIZ8b2wkrw0TYT5FTCW-3" value="" style="rounded=0;whiteSpace=wrap;html=1;fillColor=#CCFFCC;strokeColor=#82b366;" vertex="1" parent="1">
          <mxGeometry x="-20" width="700" height="740" as="geometry" />
        </mxCell>
        <mxCell id="iWIZ8b2wkrw0TYT5FTCW-4" value="" style="rounded=1;whiteSpace=wrap;html=1;fillColor=#f5f5f5;fontColor=#333333;strokeColor=#666666;" vertex="1" parent="1">
          <mxGeometry y="50" width="1200" height="160" as="geometry" />
        </mxCell>
        <mxCell id="iWIZ8b2wkrw0TYT5FTCW-5" value="" style="rounded=1;whiteSpace=wrap;html=1;fillColor=#f5f5f5;strokeColor=#666666;fontColor=#333333;" vertex="1" parent="1">
          <mxGeometry y="260" width="1200" height="160" as="geometry" />
        </mxCell>
        <mxCell id="iWIZ8b2wkrw0TYT5FTCW-6" value="" style="rounded=1;whiteSpace=wrap;html=1;fillColor=#f5f5f5;strokeColor=#666666;fontColor=#333333;" vertex="1" parent="1">
          <mxGeometry y="450" width="1220" height="160" as="geometry" />
        </mxCell>
        <mxCell id="iWIZ8b2wkrw0TYT5FTCW-7" value="&lt;font style=&quot;font-size: 16px;&quot;&gt;&lt;b style=&quot;&quot;&gt;DATA(entity)&lt;/b&gt;&lt;/font&gt;" style="rounded=0;whiteSpace=wrap;html=1;fillColor=#f8cecc;strokeColor=#b85450;" vertex="1" parent="1">
          <mxGeometry x="50" y="500" width="120" height="60" as="geometry" />
        </mxCell>
        <mxCell id="iWIZ8b2wkrw0TYT5FTCW-8" value="&lt;font style=&quot;font-size: 16px;&quot;&gt;&lt;b style=&quot;&quot;&gt;entity-repo&lt;br&gt;(jpa, jdbc ...)&lt;/b&gt;&lt;/font&gt;" style="rounded=0;whiteSpace=wrap;html=1;fillColor=#dae8fc;strokeColor=#6c8ebf;" vertex="1" parent="1">
          <mxGeometry x="210" y="500" width="120" height="60" as="geometry" />
        </mxCell>
        <mxCell id="iWIZ8b2wkrw0TYT5FTCW-9" value="&lt;font style=&quot;font-size: 16px;&quot;&gt;&lt;b style=&quot;&quot;&gt;repo-명세(인터페이스)&lt;/b&gt;&lt;/font&gt;" style="rounded=0;whiteSpace=wrap;html=1;fillColor=#f8cecc;strokeColor=#b85450;" vertex="1" parent="1">
          <mxGeometry x="417.5" y="500" width="165" height="60" as="geometry" />
        </mxCell>
        <mxCell id="iWIZ8b2wkrw0TYT5FTCW-10" value="&lt;font style=&quot;font-size: 16px;&quot;&gt;&lt;b style=&quot;&quot;&gt;구현체 테스트&lt;/b&gt;&lt;/font&gt;" style="rounded=0;whiteSpace=wrap;html=1;fillColor=#dae8fc;strokeColor=#6c8ebf;" vertex="1" parent="1">
          <mxGeometry x="770" y="500" width="150" height="60" as="geometry" />
        </mxCell>
        <mxCell id="iWIZ8b2wkrw0TYT5FTCW-11" value="" style="endArrow=classic;html=1;rounded=0;exitX=0.5;exitY=1;exitDx=0;exitDy=0;entryX=0.465;entryY=1.02;entryDx=0;entryDy=0;entryPerimeter=0;fillColor=#dae8fc;strokeColor=#6c8ebf;strokeWidth=2;" edge="1" parent="1" source="iWIZ8b2wkrw0TYT5FTCW-8" target="iWIZ8b2wkrw0TYT5FTCW-10">
          <mxGeometry width="50" height="50" relative="1" as="geometry">
            <mxPoint x="390" y="540" as="sourcePoint" />
            <mxPoint x="845" y="540" as="targetPoint" />
            <Array as="points">
              <mxPoint x="270" y="720" />
              <mxPoint x="840" y="720" />
            </Array>
          </mxGeometry>
        </mxCell>
        <mxCell id="iWIZ8b2wkrw0TYT5FTCW-12" value="&lt;font style=&quot;font-size: 16px;&quot;&gt;&lt;b style=&quot;&quot;&gt;명세에 대한 fixture&lt;br&gt;(for 상위 레이어 테스트)&lt;/b&gt;&lt;/font&gt;" style="rounded=0;whiteSpace=wrap;html=1;fillColor=#dae8fc;strokeColor=#6c8ebf;" vertex="1" parent="1">
          <mxGeometry x="950" y="500" width="250" height="60" as="geometry" />
        </mxCell>
        <mxCell id="iWIZ8b2wkrw0TYT5FTCW-13" value="" style="endArrow=classic;html=1;rounded=0;exitX=0.5;exitY=1;exitDx=0;exitDy=0;entryX=0.529;entryY=1.059;entryDx=0;entryDy=0;entryPerimeter=0;fillColor=#dae8fc;strokeColor=#6c8ebf;strokeWidth=2;" edge="1" parent="1" source="iWIZ8b2wkrw0TYT5FTCW-9" target="iWIZ8b2wkrw0TYT5FTCW-12">
          <mxGeometry width="50" height="50" relative="1" as="geometry">
            <mxPoint x="390" y="540" as="sourcePoint" />
            <mxPoint x="1000" y="530" as="targetPoint" />
            <Array as="points">
              <mxPoint x="500" y="650" />
              <mxPoint x="1082" y="650" />
            </Array>
          </mxGeometry>
        </mxCell>
        <mxCell id="iWIZ8b2wkrw0TYT5FTCW-14" value="&lt;font style=&quot;font-size: 16px;&quot;&gt;&lt;b style=&quot;&quot;&gt;DATA&lt;br&gt;(domain-spec)&lt;/b&gt;&lt;/font&gt;" style="rounded=0;whiteSpace=wrap;html=1;fillColor=#f8cecc;strokeColor=#b85450;" vertex="1" parent="1">
          <mxGeometry x="50" y="300" width="120" height="60" as="geometry" />
        </mxCell>
        <mxCell id="iWIZ8b2wkrw0TYT5FTCW-15" value="&lt;span style=&quot;font-size: 16px;&quot;&gt;&lt;b&gt;domain-api-interface&lt;/b&gt;&lt;/span&gt;" style="rounded=0;whiteSpace=wrap;html=1;fillColor=#f8cecc;strokeColor=#b85450;" vertex="1" parent="1">
          <mxGeometry x="390" y="300" width="200" height="60" as="geometry" />
        </mxCell>
        <mxCell id="iWIZ8b2wkrw0TYT5FTCW-16" value="&lt;span style=&quot;font-size: 16px;&quot;&gt;&lt;b&gt;domain-api-impl&lt;/b&gt;&lt;/span&gt;" style="rounded=0;whiteSpace=wrap;html=1;fillColor=#dae8fc;strokeColor=#6c8ebf;" vertex="1" parent="1">
          <mxGeometry x="190" y="300" width="150" height="60" as="geometry" />
        </mxCell>
        <mxCell id="iWIZ8b2wkrw0TYT5FTCW-17" value="&lt;span style=&quot;font-size: 16px;&quot;&gt;&lt;b&gt;domain-api-interface&lt;/b&gt;&lt;/span&gt;" style="rounded=0;whiteSpace=wrap;html=1;fillColor=#f8cecc;strokeColor=#b85450;" vertex="1" parent="1">
          <mxGeometry x="400" y="310" width="200" height="60" as="geometry" />
        </mxCell>
        <mxCell id="iWIZ8b2wkrw0TYT5FTCW-18" value="&lt;span style=&quot;font-size: 16px;&quot;&gt;&lt;b&gt;domain-api-interface&lt;/b&gt;&lt;/span&gt;" style="rounded=0;whiteSpace=wrap;html=1;fillColor=#f8cecc;strokeColor=#b85450;" vertex="1" parent="1">
          <mxGeometry x="410" y="320" width="200" height="60" as="geometry" />
        </mxCell>
        <mxCell id="iWIZ8b2wkrw0TYT5FTCW-19" value="&lt;span style=&quot;font-size: 16px;&quot;&gt;&lt;b&gt;domain-api-impl&lt;/b&gt;&lt;/span&gt;" style="rounded=0;whiteSpace=wrap;html=1;fillColor=#dae8fc;strokeColor=#6c8ebf;" vertex="1" parent="1">
          <mxGeometry x="200" y="310" width="150" height="60" as="geometry" />
        </mxCell>
        <mxCell id="iWIZ8b2wkrw0TYT5FTCW-20" value="&lt;span style=&quot;font-size: 16px;&quot;&gt;&lt;b&gt;domain-api-impl&lt;/b&gt;&lt;/span&gt;" style="rounded=0;whiteSpace=wrap;html=1;fillColor=#dae8fc;strokeColor=#6c8ebf;" vertex="1" parent="1">
          <mxGeometry x="210" y="320" width="150" height="60" as="geometry" />
        </mxCell>
        <mxCell id="iWIZ8b2wkrw0TYT5FTCW-21" value="" style="endArrow=classic;html=1;rounded=0;exitX=0.5;exitY=0;exitDx=0;exitDy=0;entryX=0.75;entryY=1;entryDx=0;entryDy=0;fillColor=#f8cecc;strokeColor=#b85450;strokeWidth=2;" edge="1" parent="1" source="iWIZ8b2wkrw0TYT5FTCW-9" target="iWIZ8b2wkrw0TYT5FTCW-20">
          <mxGeometry width="50" height="50" relative="1" as="geometry">
            <mxPoint x="502.5" y="480" as="sourcePoint" />
            <mxPoint x="325" y="380" as="targetPoint" />
            <Array as="points">
              <mxPoint x="500" y="440" />
              <mxPoint x="320" y="440" />
            </Array>
          </mxGeometry>
        </mxCell>
        <mxCell id="iWIZ8b2wkrw0TYT5FTCW-22" value="" style="endArrow=classic;html=1;rounded=0;exitX=0.5;exitY=0;exitDx=0;exitDy=0;fillColor=#f8cecc;strokeColor=#b85450;strokeWidth=2;" edge="1" parent="1" source="iWIZ8b2wkrw0TYT5FTCW-7">
          <mxGeometry width="50" height="50" relative="1" as="geometry">
            <mxPoint x="390" y="540" as="sourcePoint" />
            <mxPoint x="240" y="381" as="targetPoint" />
            <Array as="points">
              <mxPoint x="110" y="440" />
              <mxPoint x="240" y="440" />
            </Array>
          </mxGeometry>
        </mxCell>
        <mxCell id="iWIZ8b2wkrw0TYT5FTCW-23" value="&lt;font style=&quot;font-size: 16px;&quot;&gt;&lt;b style=&quot;&quot;&gt;구현체 테스트&lt;/b&gt;&lt;/font&gt;" style="rounded=0;whiteSpace=wrap;html=1;fillColor=#dae8fc;strokeColor=#6c8ebf;" vertex="1" parent="1">
          <mxGeometry x="770" y="300" width="150" height="60" as="geometry" />
        </mxCell>
        <mxCell id="iWIZ8b2wkrw0TYT5FTCW-24" value="&lt;font style=&quot;font-size: 16px;&quot;&gt;&lt;b style=&quot;&quot;&gt;명세에 대한 fixture&lt;br&gt;(for 상위 레이어 테스트)&lt;/b&gt;&lt;/font&gt;" style="rounded=0;whiteSpace=wrap;html=1;fillColor=#dae8fc;strokeColor=#6c8ebf;" vertex="1" parent="1">
          <mxGeometry x="950" y="300" width="250" height="60" as="geometry" />
        </mxCell>
        <mxCell id="iWIZ8b2wkrw0TYT5FTCW-25" value="" style="endArrow=classic;html=1;rounded=0;entryX=0.25;entryY=0;entryDx=0;entryDy=0;fillColor=#dae8fc;strokeColor=#6c8ebf;strokeWidth=2;" edge="1" parent="1" target="iWIZ8b2wkrw0TYT5FTCW-23">
          <mxGeometry width="50" height="50" relative="1" as="geometry">
            <mxPoint x="320" y="320" as="sourcePoint" />
            <mxPoint x="440" y="490" as="targetPoint" />
            <Array as="points">
              <mxPoint x="320" y="250" />
              <mxPoint x="807" y="250" />
            </Array>
          </mxGeometry>
        </mxCell>
        <mxCell id="iWIZ8b2wkrw0TYT5FTCW-26" value="" style="endArrow=classic;html=1;rounded=0;entryX=0.37;entryY=0.059;entryDx=0;entryDy=0;entryPerimeter=0;exitX=0.75;exitY=0;exitDx=0;exitDy=0;fillColor=#dae8fc;strokeColor=#6c8ebf;strokeWidth=2;" edge="1" parent="1" source="iWIZ8b2wkrw0TYT5FTCW-18" target="iWIZ8b2wkrw0TYT5FTCW-24">
          <mxGeometry width="50" height="50" relative="1" as="geometry">
            <mxPoint x="390" y="540" as="sourcePoint" />
            <mxPoint x="440" y="490" as="targetPoint" />
            <Array as="points">
              <mxPoint x="560" y="240" />
              <mxPoint x="1043" y="240" />
            </Array>
          </mxGeometry>
        </mxCell>
        <mxCell id="iWIZ8b2wkrw0TYT5FTCW-27" value="&lt;font style=&quot;font-size: 16px;&quot;&gt;&lt;b style=&quot;&quot;&gt;DATA&lt;br&gt;(Read)&lt;/b&gt;&lt;/font&gt;" style="rounded=0;whiteSpace=wrap;html=1;fillColor=#f8cecc;strokeColor=#b85450;" vertex="1" parent="1">
          <mxGeometry x="10" y="100" width="120" height="60" as="geometry" />
        </mxCell>
        <mxCell id="iWIZ8b2wkrw0TYT5FTCW-28" value="&lt;span style=&quot;font-size: 16px;&quot;&gt;&lt;b&gt;controller&lt;/b&gt;&lt;/span&gt;" style="rounded=0;whiteSpace=wrap;html=1;" vertex="1" parent="1">
          <mxGeometry x="432.5" y="60" width="150" height="30" as="geometry" />
        </mxCell>
        <mxCell id="iWIZ8b2wkrw0TYT5FTCW-29" value="&lt;span style=&quot;font-size: 16px;&quot;&gt;&lt;b&gt;api-service-impl&lt;br&gt;&lt;/b&gt;&lt;/span&gt;" style="rounded=0;whiteSpace=wrap;html=1;fillColor=#dae8fc;strokeColor=#6c8ebf;" vertex="1" parent="1">
          <mxGeometry x="200" y="100" width="150" height="60" as="geometry" />
        </mxCell>
        <mxCell id="iWIZ8b2wkrw0TYT5FTCW-30" value="" style="endArrow=classic;html=1;rounded=0;exitX=0.25;exitY=0;exitDx=0;exitDy=0;entryX=0.69;entryY=0.992;entryDx=0;entryDy=0;entryPerimeter=0;fillColor=#f8cecc;strokeColor=#b85450;strokeWidth=2;" edge="1" parent="1" source="iWIZ8b2wkrw0TYT5FTCW-15" target="iWIZ8b2wkrw0TYT5FTCW-29">
          <mxGeometry width="50" height="50" relative="1" as="geometry">
            <mxPoint x="390" y="540" as="sourcePoint" />
            <mxPoint x="440" y="490" as="targetPoint" />
            <Array as="points">
              <mxPoint x="440" y="240" />
              <mxPoint x="304" y="240" />
            </Array>
          </mxGeometry>
        </mxCell>
        <mxCell id="iWIZ8b2wkrw0TYT5FTCW-31" value="" style="endArrow=classic;html=1;rounded=0;entryX=0.25;entryY=1;entryDx=0;entryDy=0;exitX=0.5;exitY=0;exitDx=0;exitDy=0;fillColor=#f8cecc;strokeColor=#b85450;strokeWidth=2;" edge="1" parent="1" source="iWIZ8b2wkrw0TYT5FTCW-14" target="iWIZ8b2wkrw0TYT5FTCW-29">
          <mxGeometry width="50" height="50" relative="1" as="geometry">
            <mxPoint x="390" y="540" as="sourcePoint" />
            <mxPoint x="440" y="490" as="targetPoint" />
            <Array as="points">
              <mxPoint x="110" y="240" />
              <mxPoint x="240" y="240" />
            </Array>
          </mxGeometry>
        </mxCell>
        <mxCell id="iWIZ8b2wkrw0TYT5FTCW-32" value="" style="endArrow=classic;html=1;rounded=0;exitX=0.75;exitY=0;exitDx=0;exitDy=0;entryX=0.376;entryY=1.034;entryDx=0;entryDy=0;entryPerimeter=0;fillColor=#dae8fc;strokeColor=#6c8ebf;strokeWidth=2;" edge="1" parent="1" source="iWIZ8b2wkrw0TYT5FTCW-9" target="iWIZ8b2wkrw0TYT5FTCW-24">
          <mxGeometry width="50" height="50" relative="1" as="geometry">
            <mxPoint x="590" y="560" as="sourcePoint" />
            <mxPoint x="640" y="510" as="targetPoint" />
            <Array as="points">
              <mxPoint x="540" y="440" />
              <mxPoint x="1044" y="440" />
            </Array>
          </mxGeometry>
        </mxCell>
        <mxCell id="iWIZ8b2wkrw0TYT5FTCW-33" value="" style="endArrow=classic;html=1;rounded=0;exitX=0;exitY=0.5;exitDx=0;exitDy=0;entryX=0.102;entryY=0.938;entryDx=0;entryDy=0;fillColor=#dae8fc;strokeColor=light-dark(#126ff3, #5c79a3);strokeWidth=2;entryPerimeter=0;" edge="1" parent="1" source="iWIZ8b2wkrw0TYT5FTCW-7" target="iWIZ8b2wkrw0TYT5FTCW-52">
          <mxGeometry width="50" height="50" relative="1" as="geometry">
            <mxPoint x="700" y="540" as="sourcePoint" />
            <mxPoint x="750" y="490" as="targetPoint" />
            <Array as="points">
              <mxPoint x="20" y="530" />
              <mxPoint x="20" y="800" />
              <mxPoint x="1280" y="800" />
              <mxPoint x="1280" y="410" />
              <mxPoint x="805" y="410" />
            </Array>
          </mxGeometry>
        </mxCell>
        <mxCell id="iWIZ8b2wkrw0TYT5FTCW-34" value="" style="endArrow=classic;html=1;rounded=0;exitX=0.5;exitY=1;exitDx=0;exitDy=0;entryX=1;entryY=0.5;entryDx=0;entryDy=0;fillColor=#dae8fc;strokeColor=light-dark(#126ff3, #5c79a3);strokeWidth=2;" edge="1" parent="1" source="iWIZ8b2wkrw0TYT5FTCW-7" target="iWIZ8b2wkrw0TYT5FTCW-24">
          <mxGeometry width="50" height="50" relative="1" as="geometry">
            <mxPoint x="70" y="520" as="sourcePoint" />
            <mxPoint x="818" y="370" as="targetPoint" />
            <Array as="points">
              <mxPoint x="110" y="840" />
              <mxPoint x="1320" y="840" />
              <mxPoint x="1320" y="330" />
              <mxPoint x="1250" y="330" />
            </Array>
          </mxGeometry>
        </mxCell>
        <mxCell id="iWIZ8b2wkrw0TYT5FTCW-35" value="" style="endArrow=classic;html=1;rounded=0;entryX=0.84;entryY=0.167;entryDx=0;entryDy=0;fillColor=#dae8fc;strokeColor=light-dark(#126ff3, #5c79a3);entryPerimeter=0;strokeWidth=2;" edge="1" parent="1" target="iWIZ8b2wkrw0TYT5FTCW-24">
          <mxGeometry width="50" height="50" relative="1" as="geometry">
            <mxPoint x="51" y="320" as="sourcePoint" />
            <mxPoint x="818" y="370" as="targetPoint" />
            <Array as="points">
              <mxPoint x="-40" y="320" />
              <mxPoint x="-40" y="520" />
              <mxPoint x="-40" y="880" />
              <mxPoint x="1360" y="880" />
              <mxPoint x="1360" y="240" />
              <mxPoint x="1160" y="240" />
            </Array>
          </mxGeometry>
        </mxCell>
        <mxCell id="iWIZ8b2wkrw0TYT5FTCW-36" value="&lt;span style=&quot;font-size: 16px;&quot;&gt;&lt;b&gt;api-service 테스트&lt;/b&gt;&lt;/span&gt;" style="rounded=0;whiteSpace=wrap;html=1;fillColor=#dae8fc;strokeColor=#6c8ebf;" vertex="1" parent="1">
          <mxGeometry x="770" y="100" width="150" height="60" as="geometry" />
        </mxCell>
        <mxCell id="iWIZ8b2wkrw0TYT5FTCW-37" value="" style="endArrow=classic;html=1;rounded=0;exitX=0.75;exitY=0;exitDx=0;exitDy=0;fillColor=#dae8fc;strokeColor=#6c8ebf;strokeWidth=2;" edge="1" parent="1" source="iWIZ8b2wkrw0TYT5FTCW-27" target="iWIZ8b2wkrw0TYT5FTCW-36">
          <mxGeometry width="50" height="50" relative="1" as="geometry">
            <mxPoint x="700" y="470" as="sourcePoint" />
            <mxPoint x="750" y="420" as="targetPoint" />
            <Array as="points">
              <mxPoint x="100" y="40" />
              <mxPoint x="840" y="40" />
            </Array>
          </mxGeometry>
        </mxCell>
        <mxCell id="iWIZ8b2wkrw0TYT5FTCW-38" value="" style="endArrow=classic;html=1;rounded=0;entryX=0.25;entryY=0;entryDx=0;entryDy=0;exitX=0.75;exitY=0;exitDx=0;exitDy=0;fillColor=#dae8fc;strokeColor=#6c8ebf;strokeWidth=2;" edge="1" parent="1" source="iWIZ8b2wkrw0TYT5FTCW-29" target="iWIZ8b2wkrw0TYT5FTCW-36">
          <mxGeometry width="50" height="50" relative="1" as="geometry">
            <mxPoint x="1620" y="290" as="sourcePoint" />
            <mxPoint x="750" y="420" as="targetPoint" />
            <Array as="points">
              <mxPoint x="313" y="50" />
              <mxPoint x="808" y="50" />
            </Array>
          </mxGeometry>
        </mxCell>
        <mxCell id="iWIZ8b2wkrw0TYT5FTCW-39" value="" style="endArrow=classic;html=1;rounded=0;entryX=0.25;entryY=1;entryDx=0;entryDy=0;exitX=0.75;exitY=0;exitDx=0;exitDy=0;fillColor=#dae8fc;strokeColor=#6c8ebf;strokeWidth=2;" edge="1" parent="1" source="iWIZ8b2wkrw0TYT5FTCW-14" target="iWIZ8b2wkrw0TYT5FTCW-36">
          <mxGeometry width="50" height="50" relative="1" as="geometry">
            <mxPoint x="700" y="470" as="sourcePoint" />
            <mxPoint x="750" y="420" as="targetPoint" />
            <Array as="points">
              <mxPoint x="140" y="200" />
              <mxPoint x="808" y="200" />
            </Array>
          </mxGeometry>
        </mxCell>
        <mxCell id="iWIZ8b2wkrw0TYT5FTCW-40" value="" style="endArrow=classic;html=1;rounded=0;entryX=0.5;entryY=1;entryDx=0;entryDy=0;exitX=0.25;exitY=0;exitDx=0;exitDy=0;fillColor=#dae8fc;strokeColor=#6c8ebf;strokeWidth=2;" edge="1" parent="1" source="iWIZ8b2wkrw0TYT5FTCW-24" target="iWIZ8b2wkrw0TYT5FTCW-36">
          <mxGeometry width="50" height="50" relative="1" as="geometry">
            <mxPoint x="700" y="470" as="sourcePoint" />
            <mxPoint x="750" y="420" as="targetPoint" />
            <Array as="points">
              <mxPoint x="1013" y="200" />
              <mxPoint x="845" y="200" />
            </Array>
          </mxGeometry>
        </mxCell>
        <mxCell id="iWIZ8b2wkrw0TYT5FTCW-41" value="&lt;b&gt;&lt;font style=&quot;font-size: 20px;&quot;&gt;Layered spring boot app&lt;/font&gt;&lt;/b&gt;" style="text;html=1;align=center;verticalAlign=middle;whiteSpace=wrap;rounded=0;" vertex="1" parent="1">
          <mxGeometry x="-40" y="-50" width="310" height="30" as="geometry" />
        </mxCell>
        <mxCell id="iWIZ8b2wkrw0TYT5FTCW-42" value="&lt;b&gt;&lt;font style=&quot;font-size: 20px;&quot;&gt;/main&lt;/font&gt;&lt;/b&gt;" style="text;html=1;align=center;verticalAlign=middle;whiteSpace=wrap;rounded=0;" vertex="1" parent="1">
          <mxGeometry x="520" y="10" width="140" height="30" as="geometry" />
        </mxCell>
        <mxCell id="iWIZ8b2wkrw0TYT5FTCW-43" value="&lt;b&gt;&lt;font style=&quot;font-size: 20px;&quot;&gt;/test&lt;/font&gt;&lt;/b&gt;" style="text;html=1;align=center;verticalAlign=middle;whiteSpace=wrap;rounded=0;" vertex="1" parent="1">
          <mxGeometry x="1060" y="10" width="140" height="30" as="geometry" />
        </mxCell>
        <mxCell id="iWIZ8b2wkrw0TYT5FTCW-44" value="&lt;b&gt;&lt;font style=&quot;font-size: 20px;&quot;&gt;/web&lt;/font&gt;&lt;/b&gt;" style="text;html=1;align=center;verticalAlign=middle;whiteSpace=wrap;rounded=0;" vertex="1" parent="1">
          <mxGeometry x="-10" y="60" width="140" height="30" as="geometry" />
        </mxCell>
        <mxCell id="iWIZ8b2wkrw0TYT5FTCW-45" value="&lt;b&gt;&lt;font style=&quot;font-size: 20px;&quot;&gt;/domain&lt;/font&gt;&lt;/b&gt;" style="text;html=1;align=center;verticalAlign=middle;whiteSpace=wrap;rounded=0;" vertex="1" parent="1">
          <mxGeometry x="-10" y="270" width="140" height="30" as="geometry" />
        </mxCell>
        <mxCell id="iWIZ8b2wkrw0TYT5FTCW-46" value="&lt;b&gt;&lt;font style=&quot;font-size: 20px;&quot;&gt;/infra&lt;/font&gt;&lt;/b&gt;" style="text;html=1;align=center;verticalAlign=middle;whiteSpace=wrap;rounded=0;" vertex="1" parent="1">
          <mxGeometry x="-10" y="470" width="140" height="30" as="geometry" />
        </mxCell>
        <mxCell id="iWIZ8b2wkrw0TYT5FTCW-47" value="" style="endArrow=classic;html=1;rounded=0;exitX=1;exitY=0.5;exitDx=0;exitDy=0;strokeWidth=2;" edge="1" parent="1" source="iWIZ8b2wkrw0TYT5FTCW-7" target="iWIZ8b2wkrw0TYT5FTCW-8">
          <mxGeometry width="50" height="50" relative="1" as="geometry">
            <mxPoint x="340" y="460" as="sourcePoint" />
            <mxPoint x="390" y="410" as="targetPoint" />
          </mxGeometry>
        </mxCell>
        <mxCell id="iWIZ8b2wkrw0TYT5FTCW-48" value="" style="endArrow=classic;html=1;rounded=0;exitX=1;exitY=0.5;exitDx=0;exitDy=0;strokeWidth=2;entryX=0;entryY=0.5;entryDx=0;entryDy=0;" edge="1" parent="1" source="iWIZ8b2wkrw0TYT5FTCW-14" target="iWIZ8b2wkrw0TYT5FTCW-16">
          <mxGeometry width="50" height="50" relative="1" as="geometry">
            <mxPoint x="180" y="540" as="sourcePoint" />
            <mxPoint x="220" y="540" as="targetPoint" />
          </mxGeometry>
        </mxCell>
        <mxCell id="iWIZ8b2wkrw0TYT5FTCW-49" value="" style="endArrow=classic;html=1;rounded=0;strokeWidth=2;entryX=0;entryY=0.5;entryDx=0;entryDy=0;" edge="1" parent="1" source="iWIZ8b2wkrw0TYT5FTCW-27" target="iWIZ8b2wkrw0TYT5FTCW-29">
          <mxGeometry width="50" height="50" relative="1" as="geometry">
            <mxPoint x="180" y="340" as="sourcePoint" />
            <mxPoint x="200" y="340" as="targetPoint" />
          </mxGeometry>
        </mxCell>
        <mxCell id="iWIZ8b2wkrw0TYT5FTCW-50" value="&lt;span style=&quot;font-size: 16px;&quot;&gt;&lt;b&gt;api-service&lt;br&gt;(인터페이스 명세)&lt;/b&gt;&lt;/span&gt;" style="rounded=0;whiteSpace=wrap;html=1;fillColor=#f8cecc;strokeColor=#b85450;" vertex="1" parent="1">
          <mxGeometry x="425" y="100" width="150" height="60" as="geometry" />
        </mxCell>
        <mxCell id="iWIZ8b2wkrw0TYT5FTCW-51" value="&lt;font style=&quot;font-size: 16px;&quot;&gt;&lt;b style=&quot;&quot;&gt;구현체 테스트&lt;/b&gt;&lt;/font&gt;" style="rounded=0;whiteSpace=wrap;html=1;fillColor=#dae8fc;strokeColor=#6c8ebf;" vertex="1" parent="1">
          <mxGeometry x="780" y="310" width="150" height="60" as="geometry" />
        </mxCell>
        <mxCell id="iWIZ8b2wkrw0TYT5FTCW-52" value="&lt;font style=&quot;font-size: 16px;&quot;&gt;&lt;b style=&quot;&quot;&gt;구현체 테스트&lt;/b&gt;&lt;/font&gt;" style="rounded=0;whiteSpace=wrap;html=1;fillColor=#dae8fc;strokeColor=#6c8ebf;" vertex="1" parent="1">
          <mxGeometry x="790" y="320" width="150" height="60" as="geometry" />
        </mxCell>
        <mxCell id="iWIZ8b2wkrw0TYT5FTCW-57" value="&lt;font style=&quot;font-size: 16px;&quot;&gt;&lt;b style=&quot;&quot;&gt;명세에 대한 fixture&lt;br&gt;(for 상위 레이어 테스트)&lt;/b&gt;&lt;/font&gt;" style="rounded=0;whiteSpace=wrap;html=1;fillColor=#dae8fc;strokeColor=#6c8ebf;" vertex="1" parent="1">
          <mxGeometry x="960" y="310" width="250" height="60" as="geometry" />
        </mxCell>
        <mxCell id="iWIZ8b2wkrw0TYT5FTCW-58" value="&lt;font style=&quot;font-size: 16px;&quot;&gt;&lt;b style=&quot;&quot;&gt;명세에 대한 fixture&lt;br&gt;(for 상위 레이어 테스트)&lt;/b&gt;&lt;/font&gt;" style="rounded=0;whiteSpace=wrap;html=1;fillColor=#dae8fc;strokeColor=#6c8ebf;" vertex="1" parent="1">
          <mxGeometry x="970" y="320" width="250" height="60" as="geometry" />
        </mxCell>
      </root>
    </mxGraphModel>
  </diagram>
  <diagram id="bykLbv-L04j9yk1C_OpZ" name="페이지-4">
    <mxGraphModel dx="1133" dy="962" grid="1" gridSize="10" guides="1" tooltips="1" connect="1" arrows="1" fold="1" page="1" pageScale="1" pageWidth="827" pageHeight="1169" math="0" shadow="0">
      <root>
        <mxCell id="0" />
        <mxCell id="1" parent="0" />
        <mxCell id="958LHcXR2dmy0txXdGli-1" value="" style="rounded=0;whiteSpace=wrap;html=1;" vertex="1" parent="1">
          <mxGeometry y="120" width="600" height="400" as="geometry" />
        </mxCell>
        <mxCell id="958LHcXR2dmy0txXdGli-2" value="" style="rounded=1;whiteSpace=wrap;html=1;" vertex="1" parent="1">
          <mxGeometry y="170" width="120" height="350" as="geometry" />
        </mxCell>
        <mxCell id="958LHcXR2dmy0txXdGli-3" value="" style="rounded=1;whiteSpace=wrap;html=1;" vertex="1" parent="1">
          <mxGeometry x="120" y="170" width="490" height="350" as="geometry" />
        </mxCell>
        <mxCell id="958LHcXR2dmy0txXdGli-5" value="" style="rounded=1;whiteSpace=wrap;html=1;" vertex="1" parent="1">
          <mxGeometry x="900" y="560" width="150" height="350" as="geometry" />
        </mxCell>
        <mxCell id="958LHcXR2dmy0txXdGli-6" value="" style="rounded=0;whiteSpace=wrap;html=1;" vertex="1" parent="1">
          <mxGeometry y="120" width="600" height="50" as="geometry" />
        </mxCell>
        <mxCell id="958LHcXR2dmy0txXdGli-8" value="" style="shape=image;html=1;verticalAlign=top;verticalLabelPosition=bottom;labelBackgroundColor=#ffffff;imageAspect=0;aspect=fixed;image=https://cdn2.iconfinder.com/data/icons/boxicons-solid-vol-2/24/bxs-pointer-128.png" vertex="1" parent="1">
          <mxGeometry x="220" y="312" width="58" height="58" as="geometry" />
        </mxCell>
        <mxCell id="958LHcXR2dmy0txXdGli-9" value="public class SomeClass {&lt;br&gt;&lt;span style=&quot;white-space: pre;&quot;&gt;&#x9;&lt;/span&gt;...&lt;br&gt;}" style="text;html=1;align=left;verticalAlign=middle;whiteSpace=wrap;rounded=0;" vertex="1" parent="1">
          <mxGeometry x="134" y="200" width="280" height="140" as="geometry" />
        </mxCell>
        <mxCell id="958LHcXR2dmy0txXdGli-10" value=".....java" style="rounded=0;whiteSpace=wrap;html=1;" vertex="1" parent="1">
          <mxGeometry y="230" width="110" height="20" as="geometry" />
        </mxCell>
        <mxCell id="958LHcXR2dmy0txXdGli-12" value=".....java" style="rounded=0;whiteSpace=wrap;html=1;" vertex="1" parent="1">
          <mxGeometry y="250" width="110" height="20" as="geometry" />
        </mxCell>
        <mxCell id="958LHcXR2dmy0txXdGli-13" value=".....java" style="rounded=0;whiteSpace=wrap;html=1;" vertex="1" parent="1">
          <mxGeometry y="270" width="110" height="20" as="geometry" />
        </mxCell>
        <mxCell id="958LHcXR2dmy0txXdGli-14" value=".....java" style="rounded=0;whiteSpace=wrap;html=1;" vertex="1" parent="1">
          <mxGeometry y="290" width="110" height="20" as="geometry" />
        </mxCell>
        <mxCell id="958LHcXR2dmy0txXdGli-16" value="" style="shape=ellipse;fillColor=#33001A;strokeColor=none;html=1;sketch=0;" vertex="1" parent="1">
          <mxGeometry x="50" y="330" width="10" height="10" as="geometry" />
        </mxCell>
        <mxCell id="958LHcXR2dmy0txXdGli-17" value="" style="shape=ellipse;fillColor=#33001A;strokeColor=none;html=1;sketch=0;" vertex="1" parent="1">
          <mxGeometry x="50" y="350" width="10" height="10" as="geometry" />
        </mxCell>
        <mxCell id="958LHcXR2dmy0txXdGli-18" value="" style="shape=ellipse;fillColor=#33001A;strokeColor=none;html=1;sketch=0;" vertex="1" parent="1">
          <mxGeometry x="50" y="370" width="10" height="10" as="geometry" />
        </mxCell>
        <mxCell id="958LHcXR2dmy0txXdGli-20" value="" style="rounded=0;whiteSpace=wrap;html=1;" vertex="1" parent="1">
          <mxGeometry x="710" y="120" width="600" height="400" as="geometry" />
        </mxCell>
        <mxCell id="958LHcXR2dmy0txXdGli-21" value="" style="rounded=1;whiteSpace=wrap;html=1;" vertex="1" parent="1">
          <mxGeometry x="710" y="170" width="120" height="350" as="geometry" />
        </mxCell>
        <mxCell id="958LHcXR2dmy0txXdGli-22" value="" style="rounded=1;whiteSpace=wrap;html=1;" vertex="1" parent="1">
          <mxGeometry x="830" y="170" width="270" height="350" as="geometry" />
        </mxCell>
        <mxCell id="958LHcXR2dmy0txXdGli-23" value="" style="rounded=1;whiteSpace=wrap;html=1;" vertex="1" parent="1">
          <mxGeometry x="1100" y="170" width="210" height="350" as="geometry" />
        </mxCell>
        <mxCell id="958LHcXR2dmy0txXdGli-24" value="" style="rounded=0;whiteSpace=wrap;html=1;" vertex="1" parent="1">
          <mxGeometry x="710" y="120" width="600" height="50" as="geometry" />
        </mxCell>
        <mxCell id="958LHcXR2dmy0txXdGli-25" value="" style="shape=image;html=1;verticalAlign=top;verticalLabelPosition=bottom;labelBackgroundColor=#ffffff;imageAspect=0;aspect=fixed;image=https://cdn2.iconfinder.com/data/icons/boxicons-solid-vol-2/24/bxs-pointer-128.png" vertex="1" parent="1">
          <mxGeometry x="955" y="316" width="58" height="58" as="geometry" />
        </mxCell>
        <mxCell id="958LHcXR2dmy0txXdGli-26" value="public class SomeClass {&lt;br&gt;&lt;span style=&quot;white-space: pre;&quot;&gt;&#x9;&lt;/span&gt;...&lt;br&gt;}" style="text;html=1;align=left;verticalAlign=middle;whiteSpace=wrap;rounded=0;" vertex="1" parent="1">
          <mxGeometry x="844" y="210" width="280" height="140" as="geometry" />
        </mxCell>
        <mxCell id="958LHcXR2dmy0txXdGli-27" value=".....java" style="rounded=0;whiteSpace=wrap;html=1;" vertex="1" parent="1">
          <mxGeometry x="710" y="230" width="110" height="20" as="geometry" />
        </mxCell>
        <mxCell id="958LHcXR2dmy0txXdGli-28" value=".....java" style="rounded=0;whiteSpace=wrap;html=1;" vertex="1" parent="1">
          <mxGeometry x="710" y="250" width="110" height="20" as="geometry" />
        </mxCell>
        <mxCell id="958LHcXR2dmy0txXdGli-29" value=".....java" style="rounded=0;whiteSpace=wrap;html=1;" vertex="1" parent="1">
          <mxGeometry x="710" y="270" width="110" height="20" as="geometry" />
        </mxCell>
        <mxCell id="958LHcXR2dmy0txXdGli-30" value=".....java" style="rounded=0;whiteSpace=wrap;html=1;" vertex="1" parent="1">
          <mxGeometry x="710" y="290" width="110" height="20" as="geometry" />
        </mxCell>
        <mxCell id="958LHcXR2dmy0txXdGli-31" value="" style="shape=ellipse;fillColor=#33001A;strokeColor=none;html=1;sketch=0;" vertex="1" parent="1">
          <mxGeometry x="760" y="330" width="10" height="10" as="geometry" />
        </mxCell>
        <mxCell id="958LHcXR2dmy0txXdGli-32" value="" style="shape=ellipse;fillColor=#33001A;strokeColor=none;html=1;sketch=0;" vertex="1" parent="1">
          <mxGeometry x="760" y="350" width="10" height="10" as="geometry" />
        </mxCell>
        <mxCell id="958LHcXR2dmy0txXdGli-33" value="" style="shape=ellipse;fillColor=#33001A;strokeColor=none;html=1;sketch=0;" vertex="1" parent="1">
          <mxGeometry x="760" y="370" width="10" height="10" as="geometry" />
        </mxCell>
        <mxCell id="958LHcXR2dmy0txXdGli-34" value="-Line 1&#xa;-Line 2&#xa;-Line 3&#xa;-Line 4" style="strokeWidth=1;shadow=0;dashed=0;align=center;html=1;shape=mxgraph.mockup.text.bulletedList;textColor=#666666;mainText=,,,,;textSize=17;bulletStyle=none;strokeColor=none;fillColor=none;align=left;verticalAlign=top;fontSize=17;fontColor=#666666;" vertex="1" parent="1">
          <mxGeometry x="160" y="312" width="70" height="135" as="geometry" />
        </mxCell>
        <mxCell id="958LHcXR2dmy0txXdGli-35" value="코드 생성&amp;nbsp;" style="text;strokeColor=none;fillColor=none;html=1;fontSize=24;fontStyle=1;verticalAlign=middle;align=center;" vertex="1" parent="1">
          <mxGeometry x="1110" y="190" width="100" height="40" as="geometry" />
        </mxCell>
        <mxCell id="958LHcXR2dmy0txXdGli-36" value="타겟 클래스" style="text;html=1;align=center;verticalAlign=middle;whiteSpace=wrap;rounded=0;" vertex="1" parent="1">
          <mxGeometry x="1110" y="250" width="60" height="30" as="geometry" />
        </mxCell>
        <mxCell id="958LHcXR2dmy0txXdGli-37" value="경로" style="text;html=1;align=left;verticalAlign=middle;whiteSpace=wrap;rounded=0;" vertex="1" parent="1">
          <mxGeometry x="1110" y="275" width="60" height="30" as="geometry" />
        </mxCell>
        <mxCell id="958LHcXR2dmy0txXdGli-38" value="레퍼런스 클래스" style="text;html=1;align=left;verticalAlign=middle;whiteSpace=wrap;rounded=0;" vertex="1" parent="1">
          <mxGeometry x="1110" y="300" width="120" height="30" as="geometry" />
        </mxCell>
        <mxCell id="958LHcXR2dmy0txXdGli-39" value="추가하기." style="text;html=1;align=left;verticalAlign=middle;whiteSpace=wrap;rounded=0;" vertex="1" parent="1">
          <mxGeometry x="1110" y="330" width="120" height="30" as="geometry" />
        </mxCell>
        <mxCell id="958LHcXR2dmy0txXdGli-40" value="대상:&amp;nbsp; .. , ... , .." style="text;html=1;align=left;verticalAlign=middle;whiteSpace=wrap;rounded=0;" vertex="1" parent="1">
          <mxGeometry x="1110" y="220" width="150" height="30" as="geometry" />
        </mxCell>
        <mxCell id="958LHcXR2dmy0txXdGli-41" value="Some example text that&#39;s free-flowing within the dropdown menu.&lt;br style=&quot;font-size: 14px&quot;&gt;&lt;br style=&quot;font-size: 14px&quot;&gt;And this is more example text." style="html=1;shadow=0;dashed=0;shape=mxgraph.bootstrap.rrect;rSize=5;strokeColor=#999999;strokeWidth=1;fillColor=#FFFFFF;fontColor=#6C767D;whiteSpace=wrap;align=left;verticalAlign=middle;spacingLeft=10;fontSize=14;spacing=10;" vertex="1" parent="1">
          <mxGeometry x="1120" y="370" width="170" height="110" as="geometry" />
        </mxCell>
      </root>
    </mxGraphModel>
  </diagram>
  <diagram id="C214RAxluKfSnsIWLodG" name="플러그인 아키텍쳐">
    <mxGraphModel dx="1972" dy="2000" grid="0" gridSize="10" guides="1" tooltips="1" connect="1" arrows="1" fold="1" page="0" pageScale="1" pageWidth="827" pageHeight="1169" math="0" shadow="0">
      <root>
        <mxCell id="0" />
        <mxCell id="1" parent="0" />
        <mxCell id="Piy9DGbgJOEmrf8COQMi-71" value="" style="rounded=1;whiteSpace=wrap;html=1;fillColor=#D5E8D4;fontColor=#ffffff;strokeColor=#2D7600;" vertex="1" parent="1">
          <mxGeometry x="62" y="815" width="1842" height="899" as="geometry" />
        </mxCell>
        <mxCell id="Piy9DGbgJOEmrf8COQMi-80" value="" style="rounded=1;whiteSpace=wrap;html=1;" vertex="1" parent="1">
          <mxGeometry x="331" y="1152.5" width="288" height="224" as="geometry" />
        </mxCell>
        <mxCell id="Piy9DGbgJOEmrf8COQMi-70" value="" style="rounded=0;whiteSpace=wrap;html=1;fillColor=light-dark(#f5cce2, #ff90f3);strokeColor=#A50040;fontColor=#ffffff;" vertex="1" parent="1">
          <mxGeometry x="1440" y="1330" width="385" height="345" as="geometry" />
        </mxCell>
        <mxCell id="Piy9DGbgJOEmrf8COQMi-38" value="" style="ellipse;shape=cloud;whiteSpace=wrap;html=1;fillColor=#fff2cc;strokeColor=#d6b656;" vertex="1" parent="1">
          <mxGeometry x="771" y="823" width="534" height="423" as="geometry" />
        </mxCell>
        <mxCell id="Piy9DGbgJOEmrf8COQMi-1" value="&lt;font style=&quot;font-size: 17px;&quot;&gt;요소 정리해보기 - 덜중요한거&lt;/font&gt;" style="text;html=1;align=center;verticalAlign=middle;whiteSpace=wrap;rounded=0;" vertex="1" parent="1">
          <mxGeometry y="110" width="300" height="30" as="geometry" />
        </mxCell>
        <mxCell id="Piy9DGbgJOEmrf8COQMi-2" value="&lt;b&gt;&lt;font style=&quot;font-size: 21px;&quot;&gt;로비&lt;/font&gt;&lt;/b&gt;" style="ellipse;whiteSpace=wrap;html=1;aspect=fixed;fillColor=#f5f5f5;fontColor=#333333;strokeColor=#666666;" vertex="1" parent="1">
          <mxGeometry x="150" y="284" width="116" height="116" as="geometry" />
        </mxCell>
        <mxCell id="Piy9DGbgJOEmrf8COQMi-3" value="&lt;b&gt;&lt;font style=&quot;font-size: 19px;&quot;&gt;설정하기&amp;nbsp;&lt;/font&gt;&lt;/b&gt;" style="ellipse;whiteSpace=wrap;html=1;aspect=fixed;fillColor=#f5f5f5;fontColor=#333333;strokeColor=#666666;" vertex="1" parent="1">
          <mxGeometry x="408" y="84" width="119" height="119" as="geometry" />
        </mxCell>
        <mxCell id="Piy9DGbgJOEmrf8COQMi-4" value="" style="shape=flexArrow;endArrow=classic;startArrow=classic;html=1;rounded=0;entryX=0;entryY=1;entryDx=0;entryDy=0;" edge="1" parent="1" target="Piy9DGbgJOEmrf8COQMi-3">
          <mxGeometry width="100" height="100" relative="1" as="geometry">
            <mxPoint x="262" y="308" as="sourcePoint" />
            <mxPoint x="359" y="208" as="targetPoint" />
          </mxGeometry>
        </mxCell>
        <mxCell id="Piy9DGbgJOEmrf8COQMi-5" value="&lt;font style=&quot;font-size: 16px;&quot;&gt;1. 패키지 prefix&amp;nbsp; 설정하기&amp;nbsp;&lt;/font&gt;" style="text;html=1;align=center;verticalAlign=middle;whiteSpace=wrap;rounded=0;" vertex="1" parent="1">
          <mxGeometry x="534" y="101" width="200" height="30" as="geometry" />
        </mxCell>
        <mxCell id="Piy9DGbgJOEmrf8COQMi-6" value="&lt;font style=&quot;font-size: 16px;&quot;&gt;2. open ai key&amp;nbsp;&lt;/font&gt;" style="text;html=1;align=center;verticalAlign=middle;whiteSpace=wrap;rounded=0;" vertex="1" parent="1">
          <mxGeometry x="500" y="134" width="200" height="30" as="geometry" />
        </mxCell>
        <mxCell id="Piy9DGbgJOEmrf8COQMi-7" value="&lt;span style=&quot;font-size: 19px;&quot;&gt;&lt;b&gt;파일 생성&lt;br&gt;&amp;nbsp;템플릿&amp;nbsp;&lt;/b&gt;&lt;/span&gt;" style="ellipse;whiteSpace=wrap;html=1;aspect=fixed;fillColor=#f5f5f5;fontColor=#333333;strokeColor=#666666;" vertex="1" parent="1">
          <mxGeometry x="408" y="276.5" width="119" height="119" as="geometry" />
        </mxCell>
        <mxCell id="Piy9DGbgJOEmrf8COQMi-8" value="" style="shape=flexArrow;endArrow=classic;startArrow=classic;html=1;rounded=0;entryX=0;entryY=0.5;entryDx=0;entryDy=0;" edge="1" parent="1" source="Piy9DGbgJOEmrf8COQMi-2" target="Piy9DGbgJOEmrf8COQMi-7">
          <mxGeometry width="100" height="100" relative="1" as="geometry">
            <mxPoint x="364" y="546" as="sourcePoint" />
            <mxPoint x="464" y="446" as="targetPoint" />
          </mxGeometry>
        </mxCell>
        <mxCell id="Piy9DGbgJOEmrf8COQMi-10" value="" style="shape=link;html=1;rounded=0;entryX=0.5;entryY=1;entryDx=0;entryDy=0;" edge="1" parent="1" source="Piy9DGbgJOEmrf8COQMi-7" target="Piy9DGbgJOEmrf8COQMi-3">
          <mxGeometry width="100" relative="1" as="geometry">
            <mxPoint x="364" y="496" as="sourcePoint" />
            <mxPoint x="464" y="496" as="targetPoint" />
          </mxGeometry>
        </mxCell>
        <mxCell id="Piy9DGbgJOEmrf8COQMi-11" value="&lt;font style=&quot;font-size: 16px;&quot;&gt;1. Infra 쪽 만들기&lt;/font&gt;" style="text;html=1;align=center;verticalAlign=middle;whiteSpace=wrap;rounded=0;" vertex="1" parent="1">
          <mxGeometry x="489" y="264" width="200" height="30" as="geometry" />
        </mxCell>
        <mxCell id="Piy9DGbgJOEmrf8COQMi-12" value="&lt;font style=&quot;font-size: 16px;&quot;&gt;2. domain 쪽 만들기&lt;/font&gt;" style="text;html=1;align=center;verticalAlign=middle;whiteSpace=wrap;rounded=0;" vertex="1" parent="1">
          <mxGeometry x="500" y="294" width="200" height="30" as="geometry" />
        </mxCell>
        <mxCell id="Piy9DGbgJOEmrf8COQMi-13" value="&lt;span style=&quot;font-size: 19px;&quot;&gt;&lt;b&gt;코드 생성&lt;/b&gt;&lt;/span&gt;" style="ellipse;whiteSpace=wrap;html=1;aspect=fixed;fillColor=#f5f5f5;fontColor=#333333;strokeColor=#666666;" vertex="1" parent="1">
          <mxGeometry x="595" y="950.5" width="119" height="119" as="geometry" />
        </mxCell>
        <mxCell id="Piy9DGbgJOEmrf8COQMi-14" value="&lt;b&gt;&lt;font style=&quot;font-size: 21px;&quot;&gt;파일&lt;/font&gt;&lt;/b&gt;" style="whiteSpace=wrap;html=1;shape=mxgraph.basic.document;fillColor=#0050ef;fontColor=#ffffff;strokeColor=#001DBC;" vertex="1" parent="1">
          <mxGeometry x="140.5" y="953" width="100" height="100" as="geometry" />
        </mxCell>
        <mxCell id="Piy9DGbgJOEmrf8COQMi-16" value="&lt;b&gt;&lt;font style=&quot;font-size: 17px;&quot;&gt;유저설정 기록&lt;/font&gt;&lt;/b&gt;" style="shape=cylinder3;whiteSpace=wrap;html=1;boundedLbl=1;backgroundOutline=1;size=15;fillColor=#dae8fc;strokeColor=#6c8ebf;" vertex="1" parent="1">
          <mxGeometry x="854" y="213" width="112" height="141" as="geometry" />
        </mxCell>
        <mxCell id="Piy9DGbgJOEmrf8COQMi-18" value="" style="endArrow=classic;startArrow=classic;html=1;rounded=0;entryX=1;entryY=1;entryDx=0;entryDy=0;" edge="1" parent="1" source="Piy9DGbgJOEmrf8COQMi-16" target="Piy9DGbgJOEmrf8COQMi-3">
          <mxGeometry width="50" height="50" relative="1" as="geometry">
            <mxPoint x="602" y="521" as="sourcePoint" />
            <mxPoint x="652" y="471" as="targetPoint" />
          </mxGeometry>
        </mxCell>
        <mxCell id="Piy9DGbgJOEmrf8COQMi-19" value="" style="endArrow=classic;startArrow=classic;html=1;rounded=0;entryX=1;entryY=0.5;entryDx=0;entryDy=0;exitX=0;exitY=0;exitDx=0;exitDy=98.25;exitPerimeter=0;" edge="1" parent="1" source="Piy9DGbgJOEmrf8COQMi-16" target="Piy9DGbgJOEmrf8COQMi-7">
          <mxGeometry width="50" height="50" relative="1" as="geometry">
            <mxPoint x="602" y="518" as="sourcePoint" />
            <mxPoint x="644" y="471" as="targetPoint" />
          </mxGeometry>
        </mxCell>
        <mxCell id="Piy9DGbgJOEmrf8COQMi-20" value="&lt;b&gt;&lt;font style=&quot;font-size: 16px;&quot;&gt;파일 진입 액션&lt;/font&gt;&lt;/b&gt;" style="shape=process;whiteSpace=wrap;html=1;backgroundOutline=1;" vertex="1" parent="1">
          <mxGeometry x="390.5" y="973" width="120" height="60" as="geometry" />
        </mxCell>
        <mxCell id="Piy9DGbgJOEmrf8COQMi-21" value="" style="endArrow=classic;html=1;rounded=0;exitX=1;exitY=0.5;exitDx=0;exitDy=0;exitPerimeter=0;" edge="1" parent="1" source="Piy9DGbgJOEmrf8COQMi-14" target="Piy9DGbgJOEmrf8COQMi-20">
          <mxGeometry width="50" height="50" relative="1" as="geometry">
            <mxPoint x="584.5" y="929" as="sourcePoint" />
            <mxPoint x="634.5" y="879" as="targetPoint" />
          </mxGeometry>
        </mxCell>
        <mxCell id="Piy9DGbgJOEmrf8COQMi-22" value="" style="endArrow=classic;html=1;rounded=0;exitX=1;exitY=0.5;exitDx=0;exitDy=0;entryX=0;entryY=0.5;entryDx=0;entryDy=0;" edge="1" parent="1" source="Piy9DGbgJOEmrf8COQMi-20" target="Piy9DGbgJOEmrf8COQMi-13">
          <mxGeometry width="50" height="50" relative="1" as="geometry">
            <mxPoint x="584.5" y="929" as="sourcePoint" />
            <mxPoint x="634.5" y="879" as="targetPoint" />
          </mxGeometry>
        </mxCell>
        <mxCell id="Piy9DGbgJOEmrf8COQMi-23" value="&lt;b&gt;&lt;font style=&quot;font-size: 20px;&quot;&gt;real file reader&lt;/font&gt;&lt;/b&gt;" style="rounded=1;whiteSpace=wrap;html=1;" vertex="1" parent="1">
          <mxGeometry x="112.5" y="1256" width="218.5" height="60" as="geometry" />
        </mxCell>
        <mxCell id="Piy9DGbgJOEmrf8COQMi-25" value="" style="verticalLabelPosition=bottom;html=1;verticalAlign=top;align=center;strokeColor=none;fillColor=#00BEF2;shape=mxgraph.azure.cloud_services_configuration_file;pointerEvents=1;" vertex="1" parent="1">
          <mxGeometry x="114.5" y="1396" width="83" height="90" as="geometry" />
        </mxCell>
        <mxCell id="Piy9DGbgJOEmrf8COQMi-31" value="" style="verticalLabelPosition=bottom;html=1;verticalAlign=top;align=center;strokeColor=none;fillColor=#00BEF2;shape=mxgraph.azure.cloud_services_configuration_file;pointerEvents=1;" vertex="1" parent="1">
          <mxGeometry x="267.5" y="1396" width="83" height="90" as="geometry" />
        </mxCell>
        <mxCell id="Piy9DGbgJOEmrf8COQMi-32" value="" style="verticalLabelPosition=bottom;html=1;verticalAlign=top;align=center;strokeColor=none;fillColor=#00BEF2;shape=mxgraph.azure.cloud_services_configuration_file;pointerEvents=1;" vertex="1" parent="1">
          <mxGeometry x="420.5" y="1392" width="83" height="90" as="geometry" />
        </mxCell>
        <mxCell id="Piy9DGbgJOEmrf8COQMi-34" value="" style="endArrow=classic;html=1;rounded=0;exitX=0.5;exitY=1;exitDx=0;exitDy=0;entryX=0.482;entryY=0.075;entryDx=0;entryDy=0;entryPerimeter=0;" edge="1" parent="1" source="Piy9DGbgJOEmrf8COQMi-20" target="Piy9DGbgJOEmrf8COQMi-23">
          <mxGeometry width="50" height="50" relative="1" as="geometry">
            <mxPoint x="1068.5" y="1093" as="sourcePoint" />
            <mxPoint x="1118.5" y="1043" as="targetPoint" />
          </mxGeometry>
        </mxCell>
        <mxCell id="Piy9DGbgJOEmrf8COQMi-35" value="&lt;font style=&quot;font-size: 20px;&quot;&gt;생성 케이스&amp;nbsp; A&lt;br&gt;-판넬&amp;nbsp;&lt;/font&gt;" style="rounded=1;whiteSpace=wrap;html=1;" vertex="1" parent="1">
          <mxGeometry x="987.5" y="898" width="193" height="108" as="geometry" />
        </mxCell>
        <mxCell id="Piy9DGbgJOEmrf8COQMi-37" value="&lt;font style=&quot;font-size: 20px;&quot;&gt;생성 케이스 B&lt;br&gt;-판넬&amp;nbsp;&lt;/font&gt;" style="rounded=1;whiteSpace=wrap;html=1;" vertex="1" parent="1">
          <mxGeometry x="855.5" y="993" width="202" height="113.5" as="geometry" />
        </mxCell>
        <mxCell id="Piy9DGbgJOEmrf8COQMi-36" value="&lt;font style=&quot;font-size: 20px;&quot;&gt;생성 케이스 C&lt;br&gt;-판넬&amp;nbsp;&lt;/font&gt;" style="rounded=1;whiteSpace=wrap;html=1;" vertex="1" parent="1">
          <mxGeometry x="1000.5" y="1051" width="218" height="109.5" as="geometry" />
        </mxCell>
        <mxCell id="Piy9DGbgJOEmrf8COQMi-39" value="" style="endArrow=classic;html=1;rounded=0;exitX=1;exitY=0.5;exitDx=0;exitDy=0;" edge="1" parent="1" source="Piy9DGbgJOEmrf8COQMi-13">
          <mxGeometry width="50" height="50" relative="1" as="geometry">
            <mxPoint x="773.5" y="1070" as="sourcePoint" />
            <mxPoint x="823.5" y="1020" as="targetPoint" />
          </mxGeometry>
        </mxCell>
        <mxCell id="Piy9DGbgJOEmrf8COQMi-40" value="&lt;b&gt;&lt;font style=&quot;font-size: 17px;&quot;&gt;선택 파일 정보&lt;/font&gt;&lt;/b&gt;" style="shape=cylinder3;whiteSpace=wrap;html=1;boundedLbl=1;backgroundOutline=1;size=15;fillColor=#dae8fc;strokeColor=#6c8ebf;" vertex="1" parent="1">
          <mxGeometry x="636.5" y="1211" width="112" height="141" as="geometry" />
        </mxCell>
        <mxCell id="Piy9DGbgJOEmrf8COQMi-41" value="&lt;font style=&quot;font-size: 19px;&quot;&gt;진짜 물리&lt;br&gt;&amp;nbsp;파일들&lt;/font&gt;" style="text;html=1;align=center;verticalAlign=middle;whiteSpace=wrap;rounded=0;" vertex="1" parent="1">
          <mxGeometry x="96.5" y="1331" width="123" height="67" as="geometry" />
        </mxCell>
        <mxCell id="Piy9DGbgJOEmrf8COQMi-42" value="&lt;font style=&quot;font-size: 19px;&quot;&gt;진짜 진짜&lt;br&gt;&amp;nbsp;파일들&lt;/font&gt;" style="text;html=1;align=center;verticalAlign=middle;whiteSpace=wrap;rounded=0;" vertex="1" parent="1">
          <mxGeometry x="247.5" y="1333" width="123" height="67" as="geometry" />
        </mxCell>
        <mxCell id="Piy9DGbgJOEmrf8COQMi-43" value="&lt;font style=&quot;font-size: 19px;&quot;&gt;진짜 psi 파일들&lt;/font&gt;" style="text;html=1;align=center;verticalAlign=middle;whiteSpace=wrap;rounded=0;" vertex="1" parent="1">
          <mxGeometry x="402.5" y="1329" width="123" height="67" as="geometry" />
        </mxCell>
        <mxCell id="Piy9DGbgJOEmrf8COQMi-44" value="&lt;font style=&quot;font-size: 19px;&quot;&gt;진짜 파일 읽기&amp;nbsp;&lt;br&gt;내용 / 타입&amp;nbsp;&lt;/font&gt;" style="text;html=1;align=center;verticalAlign=middle;whiteSpace=wrap;rounded=0;" vertex="1" parent="1">
          <mxGeometry x="249.5" y="1095" width="121" height="81" as="geometry" />
        </mxCell>
        <mxCell id="Piy9DGbgJOEmrf8COQMi-45" value="" style="endArrow=classic;html=1;rounded=0;exitX=0.75;exitY=1;exitDx=0;exitDy=0;" edge="1" parent="1" source="Piy9DGbgJOEmrf8COQMi-20" target="Piy9DGbgJOEmrf8COQMi-40">
          <mxGeometry width="50" height="50" relative="1" as="geometry">
            <mxPoint x="773.5" y="1267" as="sourcePoint" />
            <mxPoint x="823.5" y="1217" as="targetPoint" />
          </mxGeometry>
        </mxCell>
        <mxCell id="Piy9DGbgJOEmrf8COQMi-46" value="&lt;span style=&quot;font-size: 20px;&quot;&gt;&lt;b&gt;reference crawler&lt;/b&gt;&lt;/span&gt;" style="rounded=1;whiteSpace=wrap;html=1;" vertex="1" parent="1">
          <mxGeometry x="779.5" y="1411" width="238" height="60" as="geometry" />
        </mxCell>
        <mxCell id="Piy9DGbgJOEmrf8COQMi-47" value="" style="endArrow=classic;html=1;rounded=0;exitX=1;exitY=0;exitDx=0;exitDy=42.75;exitPerimeter=0;entryX=0.171;entryY=0.794;entryDx=0;entryDy=0;entryPerimeter=0;" edge="1" parent="1" source="Piy9DGbgJOEmrf8COQMi-40">
          <mxGeometry width="50" height="50" relative="1" as="geometry">
            <mxPoint x="773.5" y="1267" as="sourcePoint" />
            <mxPoint x="870.8139999999999" y="1146.862" as="targetPoint" />
          </mxGeometry>
        </mxCell>
        <mxCell id="Piy9DGbgJOEmrf8COQMi-48" value="" style="endArrow=classic;html=1;rounded=0;exitX=0.461;exitY=0.046;exitDx=0;exitDy=0;exitPerimeter=0;" edge="1" parent="1" source="Piy9DGbgJOEmrf8COQMi-46">
          <mxGeometry width="50" height="50" relative="1" as="geometry">
            <mxPoint x="997.5" y="1265" as="sourcePoint" />
            <mxPoint x="1025.5" y="1198" as="targetPoint" />
          </mxGeometry>
        </mxCell>
        <mxCell id="Piy9DGbgJOEmrf8COQMi-49" value="" style="endArrow=classic;html=1;rounded=0;exitX=1;exitY=0.5;exitDx=0;exitDy=0;exitPerimeter=0;entryX=0;entryY=0.5;entryDx=0;entryDy=0;" edge="1" parent="1" source="Piy9DGbgJOEmrf8COQMi-32" target="Piy9DGbgJOEmrf8COQMi-46">
          <mxGeometry width="50" height="50" relative="1" as="geometry">
            <mxPoint x="773.5" y="1267" as="sourcePoint" />
            <mxPoint x="823.5" y="1217" as="targetPoint" />
          </mxGeometry>
        </mxCell>
        <mxCell id="Piy9DGbgJOEmrf8COQMi-50" value="&lt;b&gt;&lt;font style=&quot;font-size: 17px;&quot;&gt;system prompt generator&lt;/font&gt;&lt;/b&gt;" style="rounded=0;whiteSpace=wrap;html=1;" vertex="1" parent="1">
          <mxGeometry x="1116.5" y="1366" width="253" height="60" as="geometry" />
        </mxCell>
        <mxCell id="Piy9DGbgJOEmrf8COQMi-51" value="" style="endArrow=classic;html=1;rounded=0;exitX=0.75;exitY=0;exitDx=0;exitDy=0;entryX=0.743;entryY=0.878;entryDx=0;entryDy=0;entryPerimeter=0;" edge="1" parent="1" source="Piy9DGbgJOEmrf8COQMi-50">
          <mxGeometry width="50" height="50" relative="1" as="geometry">
            <mxPoint x="773.5" y="1253" as="sourcePoint" />
            <mxPoint x="1176.2620000000002" y="1182.394" as="targetPoint" />
          </mxGeometry>
        </mxCell>
        <mxCell id="Piy9DGbgJOEmrf8COQMi-52" value="" style="endArrow=classic;html=1;rounded=0;entryX=0.032;entryY=0.067;entryDx=0;entryDy=0;entryPerimeter=0;exitX=0.608;exitY=0.944;exitDx=0;exitDy=0;exitPerimeter=0;" edge="1" parent="1" target="Piy9DGbgJOEmrf8COQMi-50">
          <mxGeometry width="50" height="50" relative="1" as="geometry">
            <mxPoint x="1104.172" y="1210.312" as="sourcePoint" />
            <mxPoint x="823.5" y="1203" as="targetPoint" />
          </mxGeometry>
        </mxCell>
        <mxCell id="Piy9DGbgJOEmrf8COQMi-53" value="&lt;b&gt;&lt;font style=&quot;font-size: 17px;&quot;&gt;user prompt generator&lt;/font&gt;&lt;/b&gt;" style="rounded=0;whiteSpace=wrap;html=1;" vertex="1" parent="1">
          <mxGeometry x="1432" y="1069.5" width="253" height="60" as="geometry" />
        </mxCell>
        <mxCell id="Piy9DGbgJOEmrf8COQMi-54" value="" style="endArrow=classic;html=1;rounded=0;" edge="1" parent="1" source="Piy9DGbgJOEmrf8COQMi-53" target="Piy9DGbgJOEmrf8COQMi-38">
          <mxGeometry width="50" height="50" relative="1" as="geometry">
            <mxPoint x="819.5" y="1253" as="sourcePoint" />
            <mxPoint x="1311.4724285451061" y="1048.5154748026105" as="targetPoint" />
          </mxGeometry>
        </mxCell>
        <mxCell id="Piy9DGbgJOEmrf8COQMi-55" value="" style="endArrow=classic;html=1;rounded=0;entryX=0;entryY=0.5;entryDx=0;entryDy=0;exitX=0.921;exitY=0.752;exitDx=0;exitDy=0;exitPerimeter=0;" edge="1" parent="1" target="Piy9DGbgJOEmrf8COQMi-53">
          <mxGeometry width="50" height="50" relative="1" as="geometry">
            <mxPoint x="1271.3139999999999" y="1129.096" as="sourcePoint" />
            <mxPoint x="869.5" y="1203" as="targetPoint" />
          </mxGeometry>
        </mxCell>
        <mxCell id="Piy9DGbgJOEmrf8COQMi-56" value="&lt;font style=&quot;font-size: 18px;&quot;&gt;type of works&lt;/font&gt;" style="text;html=1;align=center;verticalAlign=middle;whiteSpace=wrap;rounded=0;" vertex="1" parent="1">
          <mxGeometry x="1054" y="1280" width="60" height="30" as="geometry" />
        </mxCell>
        <mxCell id="Piy9DGbgJOEmrf8COQMi-57" value="&lt;font style=&quot;font-size: 18px;&quot;&gt;neseccary ref&amp;nbsp;&lt;br&gt;via&amp;nbsp;&lt;br&gt;type of works&lt;/font&gt;" style="text;html=1;align=center;verticalAlign=middle;whiteSpace=wrap;rounded=0;" vertex="1" parent="1">
          <mxGeometry x="839" y="1250" width="135" height="102" as="geometry" />
        </mxCell>
        <mxCell id="Piy9DGbgJOEmrf8COQMi-58" value="&lt;font style=&quot;font-size: 18px;&quot;&gt;system prompt&lt;/font&gt;" style="text;html=1;align=center;verticalAlign=middle;whiteSpace=wrap;rounded=0;" vertex="1" parent="1">
          <mxGeometry x="1119.5" y="1292" width="238" height="30" as="geometry" />
        </mxCell>
        <mxCell id="Piy9DGbgJOEmrf8COQMi-59" value="&lt;span style=&quot;font-size: 18px;&quot;&gt;user prompt&amp;nbsp;&lt;/span&gt;" style="text;html=1;align=center;verticalAlign=middle;whiteSpace=wrap;rounded=0;" vertex="1" parent="1">
          <mxGeometry x="1273" y="927" width="229" height="133" as="geometry" />
        </mxCell>
        <mxCell id="Piy9DGbgJOEmrf8COQMi-61" value="&lt;font style=&quot;font-size: 18px;&quot;&gt;1. refernced classes&amp;nbsp;&lt;br&gt;2. api&amp;nbsp;&lt;br&gt;3. target&amp;nbsp;&lt;/font&gt;" style="text;html=1;align=left;verticalAlign=middle;whiteSpace=wrap;rounded=0;" vertex="1" parent="1">
          <mxGeometry x="1278" y="1120" width="302" height="196" as="geometry" />
        </mxCell>
        <mxCell id="Piy9DGbgJOEmrf8COQMi-62" value="&lt;span style=&quot;font-size: 19px;&quot;&gt;&lt;b&gt;프롬프트 커스토머&lt;/b&gt;&lt;/span&gt;" style="ellipse;whiteSpace=wrap;html=1;aspect=fixed;fillColor=#f5f5f5;fontColor=#333333;strokeColor=#666666;" vertex="1" parent="1">
          <mxGeometry x="406" y="444" width="150" height="150" as="geometry" />
        </mxCell>
        <mxCell id="Piy9DGbgJOEmrf8COQMi-63" value="" style="shape=flexArrow;endArrow=classic;startArrow=classic;html=1;rounded=0;exitX=1;exitY=1;exitDx=0;exitDy=0;" edge="1" parent="1" source="Piy9DGbgJOEmrf8COQMi-2" target="Piy9DGbgJOEmrf8COQMi-62">
          <mxGeometry width="100" height="100" relative="1" as="geometry">
            <mxPoint x="276" y="350" as="sourcePoint" />
            <mxPoint x="418" y="346" as="targetPoint" />
          </mxGeometry>
        </mxCell>
        <mxCell id="Piy9DGbgJOEmrf8COQMi-64" value="&lt;span style=&quot;font-size: 17px;&quot;&gt;&lt;b&gt;커스텀 케이스&amp;nbsp;&lt;/b&gt;&lt;/span&gt;" style="shape=cylinder3;whiteSpace=wrap;html=1;boundedLbl=1;backgroundOutline=1;size=15;fillColor=#dae8fc;strokeColor=#6c8ebf;" vertex="1" parent="1">
          <mxGeometry x="747" y="464" width="137" height="110" as="geometry" />
        </mxCell>
        <mxCell id="Piy9DGbgJOEmrf8COQMi-65" value="" style="shape=flexArrow;endArrow=classic;startArrow=classic;html=1;rounded=0;" edge="1" parent="1" source="Piy9DGbgJOEmrf8COQMi-62" target="Piy9DGbgJOEmrf8COQMi-64">
          <mxGeometry width="100" height="100" relative="1" as="geometry">
            <mxPoint x="807" y="705" as="sourcePoint" />
            <mxPoint x="907" y="605" as="targetPoint" />
          </mxGeometry>
        </mxCell>
        <mxCell id="Piy9DGbgJOEmrf8COQMi-66" value="&lt;span style=&quot;font-size: 17px;&quot;&gt;&lt;b&gt;커스텀 케이스&amp;nbsp;&lt;/b&gt;&lt;/span&gt;" style="shape=cylinder3;whiteSpace=wrap;html=1;boundedLbl=1;backgroundOutline=1;size=15;fillColor=#dae8fc;strokeColor=#6c8ebf;" vertex="1" parent="1">
          <mxGeometry x="1452" y="1547" width="137" height="110" as="geometry" />
        </mxCell>
        <mxCell id="Piy9DGbgJOEmrf8COQMi-67" value="&lt;span style=&quot;font-size: 17px;&quot;&gt;&lt;b&gt;프롬프트 레포&lt;/b&gt;&lt;/span&gt;" style="shape=cylinder3;whiteSpace=wrap;html=1;boundedLbl=1;backgroundOutline=1;size=15;fillColor=#dae8fc;strokeColor=#6c8ebf;" vertex="1" parent="1">
          <mxGeometry x="1626" y="1358" width="137" height="110" as="geometry" />
        </mxCell>
        <mxCell id="Piy9DGbgJOEmrf8COQMi-68" value="" style="endArrow=classic;startArrow=classic;html=1;rounded=0;entryX=0.5;entryY=1;entryDx=0;entryDy=0;" edge="1" parent="1" target="Piy9DGbgJOEmrf8COQMi-50">
          <mxGeometry width="50" height="50" relative="1" as="geometry">
            <mxPoint x="1454" y="1465" as="sourcePoint" />
            <mxPoint x="882" y="1286" as="targetPoint" />
          </mxGeometry>
        </mxCell>
        <mxCell id="Piy9DGbgJOEmrf8COQMi-69" value="" style="endArrow=classic;startArrow=classic;html=1;rounded=0;entryX=0.875;entryY=0.938;entryDx=0;entryDy=0;entryPerimeter=0;" edge="1" parent="1" target="Piy9DGbgJOEmrf8COQMi-53">
          <mxGeometry width="50" height="50" relative="1" as="geometry">
            <mxPoint x="1623" y="1331" as="sourcePoint" />
            <mxPoint x="882" y="1286" as="targetPoint" />
          </mxGeometry>
        </mxCell>
        <mxCell id="Piy9DGbgJOEmrf8COQMi-72" value="&lt;b&gt;&lt;font style=&quot;font-size: 20px;&quot;&gt;file Analzyer facade&lt;/font&gt;&lt;/b&gt;" style="rounded=1;whiteSpace=wrap;html=1;" vertex="1" parent="1">
          <mxGeometry x="354.75" y="1167" width="218.5" height="60" as="geometry" />
        </mxCell>
        <mxCell id="Piy9DGbgJOEmrf8COQMi-73" value="" style="endArrow=classic;startArrow=classic;html=1;rounded=0;entryX=0.5;entryY=1;entryDx=0;entryDy=0;" edge="1" parent="1" source="Piy9DGbgJOEmrf8COQMi-72" target="Piy9DGbgJOEmrf8COQMi-20">
          <mxGeometry width="50" height="50" relative="1" as="geometry">
            <mxPoint x="927" y="1276" as="sourcePoint" />
            <mxPoint x="977" y="1226" as="targetPoint" />
          </mxGeometry>
        </mxCell>
        <mxCell id="Piy9DGbgJOEmrf8COQMi-74" value="&lt;font style=&quot;font-size: 17px;&quot;&gt;요소 정리해보기 - 개중요한거&lt;/font&gt;" style="text;html=1;align=center;verticalAlign=middle;whiteSpace=wrap;rounded=0;" vertex="1" parent="1">
          <mxGeometry x="79" y="729" width="300" height="30" as="geometry" />
        </mxCell>
        <mxCell id="Piy9DGbgJOEmrf8COQMi-75" value="&lt;b&gt;&lt;font style=&quot;font-size: 16px;&quot;&gt;open ai client&amp;nbsp;&lt;/font&gt;&lt;/b&gt;" style="rounded=1;whiteSpace=wrap;html=1;" vertex="1" parent="1">
          <mxGeometry x="1417" y="872" width="258" height="60" as="geometry" />
        </mxCell>
        <mxCell id="Piy9DGbgJOEmrf8COQMi-76" value="" style="endArrow=classic;startArrow=classic;html=1;rounded=0;exitX=1;exitY=1;exitDx=0;exitDy=-15;exitPerimeter=0;" edge="1" parent="1" source="Piy9DGbgJOEmrf8COQMi-16" target="Piy9DGbgJOEmrf8COQMi-75">
          <mxGeometry width="50" height="50" relative="1" as="geometry">
            <mxPoint x="927" y="677" as="sourcePoint" />
            <mxPoint x="977" y="627" as="targetPoint" />
          </mxGeometry>
        </mxCell>
        <mxCell id="Piy9DGbgJOEmrf8COQMi-77" value="" style="endArrow=classic;startArrow=classic;html=1;rounded=0;entryX=0;entryY=0.5;entryDx=0;entryDy=0;exitX=0.904;exitY=0.318;exitDx=0;exitDy=0;exitPerimeter=0;" edge="1" parent="1" source="Piy9DGbgJOEmrf8COQMi-38" target="Piy9DGbgJOEmrf8COQMi-75">
          <mxGeometry width="50" height="50" relative="1" as="geometry">
            <mxPoint x="927" y="980" as="sourcePoint" />
            <mxPoint x="977" y="930" as="targetPoint" />
          </mxGeometry>
        </mxCell>
        <mxCell id="Piy9DGbgJOEmrf8COQMi-78" value="&lt;span style=&quot;font-size: 20px;&quot;&gt;&lt;b&gt;annotation parser&lt;/b&gt;&lt;/span&gt;" style="rounded=1;whiteSpace=wrap;html=1;" vertex="1" parent="1">
          <mxGeometry x="358.25" y="1232" width="211.75" height="60" as="geometry" />
        </mxCell>
        <mxCell id="Piy9DGbgJOEmrf8COQMi-79" value="&lt;span style=&quot;font-size: 20px;&quot;&gt;&lt;b&gt;JavaFactoryInfoBuider&lt;/b&gt;&lt;/span&gt;" style="rounded=1;whiteSpace=wrap;html=1;" vertex="1" parent="1">
          <mxGeometry x="361" y="1285" width="246.25" height="60" as="geometry" />
        </mxCell>
        <mxCell id="Piy9DGbgJOEmrf8COQMi-81" value="" style="rounded=1;whiteSpace=wrap;html=1;" vertex="1" parent="1">
          <mxGeometry x="2220" y="305" width="399" height="187" as="geometry" />
        </mxCell>
      </root>
    </mxGraphModel>
  </diagram>
  <diagram id="-h9wX-PGtStO0u5DGRRK" name="크롤링 패턴">
    <mxGraphModel grid="0" page="0" gridSize="10" guides="1" tooltips="1" connect="1" arrows="1" fold="1" pageScale="1" pageWidth="827" pageHeight="1169" math="0" shadow="0">
      <root>
        <mxCell id="0" />
        <mxCell id="1" parent="0" />
        <mxCell id="kb7DsLUI5o2w8r9iBLeC-1" value="" style="rounded=1;whiteSpace=wrap;html=1;" vertex="1" parent="1">
          <mxGeometry x="-257" y="8" width="120" height="60" as="geometry" />
        </mxCell>
        <mxCell id="kb7DsLUI5o2w8r9iBLeC-2" value="&lt;b&gt;&lt;font style=&quot;font-size: 19px;&quot;&gt;크롤링 패턴 정의하기 &lt;/font&gt;&lt;/b&gt;.&lt;div&gt;&lt;br&gt;&lt;/div&gt;&lt;div&gt;&lt;br&gt;&lt;/div&gt;&lt;div&gt;&lt;font style=&quot;font-size: 17px;&quot;&gt;1.&amp;nbsp;&lt;/font&gt;&lt;/div&gt;" style="text;html=1;align=left;verticalAlign=middle;whiteSpace=wrap;rounded=0;" vertex="1" parent="1">
          <mxGeometry x="-250" y="105" width="423" height="411" as="geometry" />
        </mxCell>
      </root>
    </mxGraphModel>
  </diagram>
  <diagram id="GpFzayirF2BQArCIMP9H" name="CollectingDataRef">
    <mxGraphModel dx="1556" dy="692" grid="0" gridSize="10" guides="1" tooltips="1" connect="1" arrows="1" fold="1" page="0" pageScale="1" pageWidth="827" pageHeight="1169" math="0" shadow="0">
      <root>
        <mxCell id="0" />
        <mxCell id="1" parent="0" />
        <mxCell id="fBM6B1_7hD4KZddkuDZW-25" value="" style="rounded=1;whiteSpace=wrap;html=1;fillColor=#f5f5f5;fontColor=#333333;strokeColor=#666666;" parent="1" vertex="1">
          <mxGeometry x="33" y="365" width="967" height="437" as="geometry" />
        </mxCell>
        <mxCell id="fBM6B1_7hD4KZddkuDZW-4" value="" style="whiteSpace=wrap;html=1;shape=mxgraph.basic.document;fillColor=#d5e8d4;strokeColor=#82b366;" parent="1" vertex="1">
          <mxGeometry x="82" y="451" width="264" height="187" as="geometry" />
        </mxCell>
        <mxCell id="fBM6B1_7hD4KZddkuDZW-5" value="&lt;font style=&quot;font-size: 15px;&quot;&gt;&lt;b&gt;AData.java&lt;/b&gt;&lt;/font&gt;" style="text;html=1;align=center;verticalAlign=middle;whiteSpace=wrap;rounded=0;" parent="1" vertex="1">
          <mxGeometry x="44" y="416" width="172" height="30" as="geometry" />
        </mxCell>
        <mxCell id="fBM6B1_7hD4KZddkuDZW-6" value="&lt;font style=&quot;font-size: 15px;&quot;&gt;@JavaFactoryData(&lt;br&gt;&amp;nbsp; referencedData = &lt;u&gt;&lt;b&gt;BData.class&lt;/b&gt;&lt;/u&gt;,&lt;br&gt;&amp;nbsp; referencedClasses =&lt;b&gt;&lt;u&gt; AUtils.class&lt;/u&gt;&lt;/b&gt;&lt;br&gt;&amp;nbsp;&lt;br&gt;)&lt;/font&gt;" style="text;html=1;align=left;verticalAlign=middle;whiteSpace=wrap;rounded=0;" parent="1" vertex="1">
          <mxGeometry x="80" y="477" width="244" height="104" as="geometry" />
        </mxCell>
        <mxCell id="fBM6B1_7hD4KZddkuDZW-8" value="&lt;font style=&quot;font-size: 15px;&quot;&gt;&lt;b&gt;BData.java&lt;/b&gt;&lt;/font&gt;" style="text;html=1;align=center;verticalAlign=middle;whiteSpace=wrap;rounded=0;" parent="1" vertex="1">
          <mxGeometry x="425" y="408" width="60" height="30" as="geometry" />
        </mxCell>
        <mxCell id="fBM6B1_7hD4KZddkuDZW-10" value="" style="whiteSpace=wrap;html=1;shape=mxgraph.basic.document;fillColor=#fff2cc;strokeColor=#d6b656;" parent="1" vertex="1">
          <mxGeometry x="82" y="677.5" width="179" height="101" as="geometry" />
        </mxCell>
        <mxCell id="fBM6B1_7hD4KZddkuDZW-11" value="&lt;font style=&quot;font-size: 15px;&quot;&gt;&lt;b&gt;AUtils.java&lt;/b&gt;&lt;/font&gt;" style="text;html=1;align=center;verticalAlign=middle;whiteSpace=wrap;rounded=0;" parent="1" vertex="1">
          <mxGeometry x="82" y="645" width="113" height="30" as="geometry" />
        </mxCell>
        <mxCell id="fBM6B1_7hD4KZddkuDZW-13" value="" style="whiteSpace=wrap;html=1;shape=mxgraph.basic.document;fillColor=#fff2cc;strokeColor=#d6b656;" parent="1" vertex="1">
          <mxGeometry x="418" y="451" width="264" height="187" as="geometry" />
        </mxCell>
        <mxCell id="fBM6B1_7hD4KZddkuDZW-14" value="&lt;font style=&quot;font-size: 15px;&quot;&gt;@JavaFactoryData(&lt;br&gt;&amp;nbsp; referencedData = &lt;b&gt;&lt;u&gt;CData.class&lt;/u&gt;&lt;/b&gt;&lt;br&gt;)&lt;/font&gt;" style="text;html=1;align=left;verticalAlign=middle;whiteSpace=wrap;rounded=0;" parent="1" vertex="1">
          <mxGeometry x="418" y="464" width="244" height="104" as="geometry" />
        </mxCell>
        <mxCell id="fBM6B1_7hD4KZddkuDZW-18" value="" style="whiteSpace=wrap;html=1;shape=mxgraph.basic.document;fillColor=#fff2cc;strokeColor=#d6b656;" parent="1" vertex="1">
          <mxGeometry x="761" y="461" width="179" height="164" as="geometry" />
        </mxCell>
        <mxCell id="fBM6B1_7hD4KZddkuDZW-19" value="&lt;font style=&quot;font-size: 15px;&quot;&gt;&lt;b&gt;CData.java&lt;/b&gt;&lt;/font&gt;" style="text;html=1;align=center;verticalAlign=middle;whiteSpace=wrap;rounded=0;" parent="1" vertex="1">
          <mxGeometry x="761" y="423" width="113" height="30" as="geometry" />
        </mxCell>
        <mxCell id="fBM6B1_7hD4KZddkuDZW-20" value="" style="endArrow=classic;html=1;rounded=0;exitX=0.5;exitY=1;exitDx=0;exitDy=0;entryX=0.5;entryY=0;entryDx=0;entryDy=0;" parent="1" source="fBM6B1_7hD4KZddkuDZW-6" target="fBM6B1_7hD4KZddkuDZW-11" edge="1">
          <mxGeometry width="50" height="50" relative="1" as="geometry">
            <mxPoint x="406" y="576" as="sourcePoint" />
            <mxPoint x="456" y="526" as="targetPoint" />
          </mxGeometry>
        </mxCell>
        <mxCell id="fBM6B1_7hD4KZddkuDZW-21" value="" style="endArrow=classic;html=1;rounded=0;" parent="1" source="fBM6B1_7hD4KZddkuDZW-6" edge="1">
          <mxGeometry width="50" height="50" relative="1" as="geometry">
            <mxPoint x="406" y="576" as="sourcePoint" />
            <mxPoint x="413" y="526" as="targetPoint" />
          </mxGeometry>
        </mxCell>
        <mxCell id="fBM6B1_7hD4KZddkuDZW-22" value="" style="endArrow=classic;html=1;rounded=0;entryX=0;entryY=0.5;entryDx=0;entryDy=0;entryPerimeter=0;" parent="1" source="fBM6B1_7hD4KZddkuDZW-13" target="fBM6B1_7hD4KZddkuDZW-18" edge="1">
          <mxGeometry width="50" height="50" relative="1" as="geometry">
            <mxPoint x="406" y="555" as="sourcePoint" />
            <mxPoint x="456" y="505" as="targetPoint" />
          </mxGeometry>
        </mxCell>
        <mxCell id="fBM6B1_7hD4KZddkuDZW-23" value="&lt;b&gt;&lt;font style=&quot;font-size: 22px;&quot;&gt;&amp;nbsp;. . .&amp;nbsp;&lt;/font&gt;&lt;/b&gt;" style="text;html=1;align=center;verticalAlign=middle;whiteSpace=wrap;rounded=0;" parent="1" vertex="1">
          <mxGeometry x="818" y="528" width="60" height="30" as="geometry" />
        </mxCell>
        <mxCell id="fBM6B1_7hD4KZddkuDZW-24" value="&lt;b&gt;&lt;font style=&quot;font-size: 22px;&quot;&gt;&amp;nbsp;. . .&amp;nbsp;&lt;/font&gt;&lt;/b&gt;" style="text;html=1;align=center;verticalAlign=middle;whiteSpace=wrap;rounded=0;" parent="1" vertex="1">
          <mxGeometry x="135" y="713" width="60" height="30" as="geometry" />
        </mxCell>
        <mxCell id="fBM6B1_7hD4KZddkuDZW-26" value="&lt;b&gt;&lt;font style=&quot;font-size: 20px;&quot;&gt;Collecing Data Refernces&lt;/font&gt;&lt;/b&gt;" style="text;html=1;align=center;verticalAlign=middle;whiteSpace=wrap;rounded=0;" parent="1" vertex="1">
          <mxGeometry x="-5" y="320" width="392" height="30" as="geometry" />
        </mxCell>
      </root>
    </mxGraphModel>
  </diagram>
  <diagram id="-5VwGdNFWPJeXR57wkwd" name="CollectingApiRef">
    <mxGraphModel dx="1826" dy="290" grid="0" gridSize="10" guides="1" tooltips="1" connect="1" arrows="1" fold="1" page="0" pageScale="1" pageWidth="827" pageHeight="1169" math="0" shadow="0">
      <root>
        <mxCell id="0" />
        <mxCell id="1" parent="0" />
        <mxCell id="WPOw6bjwFnv4j3WM2g9t-17" value="" style="rounded=1;whiteSpace=wrap;html=1;fillColor=#f5f5f5;fontColor=#333333;strokeColor=#666666;" parent="1" vertex="1">
          <mxGeometry x="-20" y="741" width="1105" height="787" as="geometry" />
        </mxCell>
        <mxCell id="spKvUHhU39gtqBqX22Vr-2" value="" style="whiteSpace=wrap;html=1;shape=mxgraph.basic.document;fillColor=#d5e8d4;strokeColor=#82b366;" parent="1" vertex="1">
          <mxGeometry x="14" y="856" width="409" height="187" as="geometry" />
        </mxCell>
        <mxCell id="spKvUHhU39gtqBqX22Vr-3" value="&lt;font style=&quot;font-size: 20px;&quot;&gt;&lt;b style=&quot;&quot;&gt;AReader.java&lt;/b&gt;&lt;/font&gt;" style="text;html=1;align=center;verticalAlign=middle;whiteSpace=wrap;rounded=0;" parent="1" vertex="1">
          <mxGeometry x="-10" y="813" width="172" height="30" as="geometry" />
        </mxCell>
        <mxCell id="spKvUHhU39gtqBqX22Vr-4" value="&lt;font style=&quot;font-size: 15px;&quot;&gt;@JavaFactoryApi(&lt;br&gt;&amp;nbsp; referencedData = &lt;b&gt;&lt;u&gt;AData.class,&lt;/u&gt;&lt;/b&gt;&lt;br&gt;&amp;nbsp; defaultImpl = &lt;b&gt;&lt;u&gt;DefaultAReader.class&lt;/u&gt;&lt;/b&gt;,&lt;br&gt;&amp;nbsp; referencedApi = {&lt;b&gt;&lt;u&gt; AEntityRepository.class, BEntityRepository.class&lt;/u&gt;&lt;/b&gt; }&amp;nbsp;&amp;nbsp;&lt;br&gt;)&lt;/font&gt;" style="text;html=1;align=left;verticalAlign=middle;whiteSpace=wrap;rounded=0;" parent="1" vertex="1">
          <mxGeometry x="20" y="879" width="368" height="104" as="geometry" />
        </mxCell>
        <mxCell id="spKvUHhU39gtqBqX22Vr-5" value="&lt;font style=&quot;font-size: 15px;&quot;&gt;&lt;b&gt;AData.java&lt;/b&gt;&lt;/font&gt;" style="text;html=1;align=center;verticalAlign=middle;whiteSpace=wrap;rounded=0;" parent="1" vertex="1">
          <mxGeometry x="547" y="758" width="60" height="30" as="geometry" />
        </mxCell>
        <mxCell id="spKvUHhU39gtqBqX22Vr-8" value="" style="whiteSpace=wrap;html=1;shape=mxgraph.basic.document;fillColor=#fff2cc;strokeColor=#d6b656;" parent="1" vertex="1">
          <mxGeometry x="540" y="801" width="264" height="123" as="geometry" />
        </mxCell>
        <mxCell id="spKvUHhU39gtqBqX22Vr-9" value="&lt;font style=&quot;font-size: 15px;&quot;&gt;@JavaFactoryData(&lt;br&gt;&amp;nbsp; referencedData = B&lt;b&gt;&lt;u&gt;Data.class&lt;/u&gt;&lt;/b&gt;&lt;br&gt;)&lt;/font&gt;" style="text;html=1;align=left;verticalAlign=middle;whiteSpace=wrap;rounded=0;" parent="1" vertex="1">
          <mxGeometry x="540" y="814" width="244" height="104" as="geometry" />
        </mxCell>
        <mxCell id="spKvUHhU39gtqBqX22Vr-11" value="&lt;font style=&quot;font-size: 15px;&quot;&gt;&lt;b&gt;BData.java&lt;/b&gt;&lt;/font&gt;" style="text;html=1;align=center;verticalAlign=middle;whiteSpace=wrap;rounded=0;" parent="1" vertex="1">
          <mxGeometry x="883" y="773" width="113" height="30" as="geometry" />
        </mxCell>
        <mxCell id="spKvUHhU39gtqBqX22Vr-14" value="" style="endArrow=classic;html=1;rounded=0;entryX=0;entryY=0.5;entryDx=0;entryDy=0;entryPerimeter=0;" parent="1" source="spKvUHhU39gtqBqX22Vr-8" target="WPOw6bjwFnv4j3WM2g9t-7" edge="1">
          <mxGeometry width="50" height="50" relative="1" as="geometry">
            <mxPoint x="528" y="905" as="sourcePoint" />
            <mxPoint x="883" y="887" as="targetPoint" />
          </mxGeometry>
        </mxCell>
        <mxCell id="spKvUHhU39gtqBqX22Vr-17" value="&lt;font style=&quot;font-size: 15px;&quot;&gt;&lt;b&gt;DefaultAReader.java&lt;/b&gt;&lt;/font&gt;" style="text;html=1;align=center;verticalAlign=middle;whiteSpace=wrap;rounded=0;" parent="1" vertex="1">
          <mxGeometry x="580" y="951" width="60" height="30" as="geometry" />
        </mxCell>
        <mxCell id="spKvUHhU39gtqBqX22Vr-21" value="" style="whiteSpace=wrap;html=1;shape=mxgraph.basic.document;fillColor=#fff2cc;strokeColor=#d6b656;" parent="1" vertex="1">
          <mxGeometry x="547" y="992.5" width="179" height="124.5" as="geometry" />
        </mxCell>
        <mxCell id="spKvUHhU39gtqBqX22Vr-22" value="&lt;b&gt;&lt;font style=&quot;font-size: 22px;&quot;&gt;&amp;nbsp;. . .&amp;nbsp;&lt;/font&gt;&lt;/b&gt;" style="text;html=1;align=center;verticalAlign=middle;whiteSpace=wrap;rounded=0;" parent="1" vertex="1">
          <mxGeometry x="604" y="1059.5" width="60" height="30" as="geometry" />
        </mxCell>
        <mxCell id="spKvUHhU39gtqBqX22Vr-24" value="" style="whiteSpace=wrap;html=1;shape=mxgraph.basic.document;fillColor=#fff2cc;strokeColor=#d6b656;" parent="1" vertex="1">
          <mxGeometry x="1" y="1239" width="409" height="187" as="geometry" />
        </mxCell>
        <mxCell id="spKvUHhU39gtqBqX22Vr-25" value="&lt;span style=&quot;text-align: left;&quot;&gt;&lt;b style=&quot;&quot;&gt;&lt;font style=&quot;font-size: 16px;&quot;&gt;AEntityRepository.class&lt;/font&gt;&lt;/b&gt;&lt;/span&gt;" style="text;html=1;align=center;verticalAlign=middle;whiteSpace=wrap;rounded=0;" parent="1" vertex="1">
          <mxGeometry x="-1" y="1197" width="172" height="30" as="geometry" />
        </mxCell>
        <mxCell id="spKvUHhU39gtqBqX22Vr-26" value="&lt;font style=&quot;font-size: 15px;&quot;&gt;@JavaFactoryApi(&lt;br&gt;&amp;nbsp; referencedData = &lt;u&gt;&lt;b&gt;AEntity.class&lt;/b&gt;&lt;/u&gt;,&lt;br&gt;&amp;nbsp; defaultImpl = DefaultAEntityRepository.class,&lt;br&gt;)&lt;/font&gt;" style="text;html=1;align=left;verticalAlign=middle;whiteSpace=wrap;rounded=0;" parent="1" vertex="1">
          <mxGeometry x="7" y="1262" width="348" height="104" as="geometry" />
        </mxCell>
        <mxCell id="spKvUHhU39gtqBqX22Vr-27" value="&lt;font style=&quot;font-size: 15px;&quot;&gt;&lt;b&gt;AEntity.java&lt;/b&gt;&lt;/font&gt;" style="text;html=1;align=center;verticalAlign=middle;whiteSpace=wrap;rounded=0;" parent="1" vertex="1">
          <mxGeometry x="525" y="1154" width="60" height="30" as="geometry" />
        </mxCell>
        <mxCell id="spKvUHhU39gtqBqX22Vr-28" value="" style="whiteSpace=wrap;html=1;shape=mxgraph.basic.document;fillColor=#fff2cc;strokeColor=#d6b656;" parent="1" vertex="1">
          <mxGeometry x="511" y="1198" width="264" height="130" as="geometry" />
        </mxCell>
        <mxCell id="spKvUHhU39gtqBqX22Vr-29" value="&lt;font style=&quot;font-size: 15px;&quot;&gt;@JavaFactoryData(&lt;br&gt;&amp;nbsp; &amp;nbsp;referencedClass = BaseEntity.class&lt;br&gt;)&lt;/font&gt;" style="text;html=1;align=left;verticalAlign=middle;whiteSpace=wrap;rounded=0;" parent="1" vertex="1">
          <mxGeometry x="518" y="1210" width="306" height="104" as="geometry" />
        </mxCell>
        <mxCell id="spKvUHhU39gtqBqX22Vr-31" value="&lt;font style=&quot;font-size: 15px;&quot;&gt;&lt;b&gt;BaseEntity.java&lt;/b&gt;&lt;/font&gt;" style="text;html=1;align=center;verticalAlign=middle;whiteSpace=wrap;rounded=0;" parent="1" vertex="1">
          <mxGeometry x="861" y="1169" width="113" height="30" as="geometry" />
        </mxCell>
        <mxCell id="spKvUHhU39gtqBqX22Vr-32" value="" style="endArrow=classic;html=1;rounded=0;entryX=0;entryY=0.5;entryDx=0;entryDy=0;entryPerimeter=0;" parent="1" source="spKvUHhU39gtqBqX22Vr-28" edge="1">
          <mxGeometry width="50" height="50" relative="1" as="geometry">
            <mxPoint x="506" y="1301" as="sourcePoint" />
            <mxPoint x="861" y="1289" as="targetPoint" />
          </mxGeometry>
        </mxCell>
        <mxCell id="spKvUHhU39gtqBqX22Vr-34" value="&lt;font style=&quot;font-size: 15px;&quot;&gt;&lt;b&gt;DefaultAReader.java&lt;/b&gt;&lt;/font&gt;" style="text;html=1;align=center;verticalAlign=middle;whiteSpace=wrap;rounded=0;" parent="1" vertex="1">
          <mxGeometry x="558" y="1350" width="60" height="30" as="geometry" />
        </mxCell>
        <mxCell id="WPOw6bjwFnv4j3WM2g9t-7" value="" style="whiteSpace=wrap;html=1;shape=mxgraph.basic.document;fillColor=#fff2cc;strokeColor=#d6b656;" parent="1" vertex="1">
          <mxGeometry x="886" y="801" width="179" height="124.5" as="geometry" />
        </mxCell>
        <mxCell id="WPOw6bjwFnv4j3WM2g9t-2" value="" style="endArrow=classic;html=1;rounded=0;exitX=0.478;exitY=1.009;exitDx=0;exitDy=0;exitPerimeter=0;entryX=0.5;entryY=0;entryDx=0;entryDy=0;entryPerimeter=0;" parent="1" source="spKvUHhU39gtqBqX22Vr-2" target="spKvUHhU39gtqBqX22Vr-24" edge="1">
          <mxGeometry width="50" height="50" relative="1" as="geometry">
            <mxPoint x="520" y="1190" as="sourcePoint" />
            <mxPoint x="570" y="1140" as="targetPoint" />
          </mxGeometry>
        </mxCell>
        <mxCell id="WPOw6bjwFnv4j3WM2g9t-3" value="" style="endArrow=classic;html=1;rounded=0;entryX=0;entryY=0.75;entryDx=0;entryDy=0;exitX=1;exitY=0.5;exitDx=0;exitDy=0;exitPerimeter=0;" parent="1" source="spKvUHhU39gtqBqX22Vr-24" target="spKvUHhU39gtqBqX22Vr-29" edge="1">
          <mxGeometry width="50" height="50" relative="1" as="geometry">
            <mxPoint x="513" y="1136" as="sourcePoint" />
            <mxPoint x="563" y="1086" as="targetPoint" />
          </mxGeometry>
        </mxCell>
        <mxCell id="WPOw6bjwFnv4j3WM2g9t-4" value="" style="endArrow=classic;html=1;rounded=0;entryX=0.009;entryY=0.831;entryDx=0;entryDy=0;entryPerimeter=0;" parent="1" target="spKvUHhU39gtqBqX22Vr-9" edge="1">
          <mxGeometry width="50" height="50" relative="1" as="geometry">
            <mxPoint x="408" y="956" as="sourcePoint" />
            <mxPoint x="570" y="1140" as="targetPoint" />
          </mxGeometry>
        </mxCell>
        <mxCell id="WPOw6bjwFnv4j3WM2g9t-5" value="" style="endArrow=classic;html=1;rounded=0;exitX=0.981;exitY=0.531;exitDx=0;exitDy=0;exitPerimeter=0;entryX=0;entryY=0.5;entryDx=0;entryDy=0;entryPerimeter=0;" parent="1" source="spKvUHhU39gtqBqX22Vr-2" target="spKvUHhU39gtqBqX22Vr-21" edge="1">
          <mxGeometry width="50" height="50" relative="1" as="geometry">
            <mxPoint x="520" y="1190" as="sourcePoint" />
            <mxPoint x="570" y="1140" as="targetPoint" />
          </mxGeometry>
        </mxCell>
        <mxCell id="WPOw6bjwFnv4j3WM2g9t-6" value="" style="endArrow=classic;html=1;rounded=0;exitX=1;exitY=0.5;exitDx=0;exitDy=0;exitPerimeter=0;" parent="1" source="spKvUHhU39gtqBqX22Vr-24" edge="1">
          <mxGeometry width="50" height="50" relative="1" as="geometry">
            <mxPoint x="513" y="1136" as="sourcePoint" />
            <mxPoint x="511" y="1405.4002624671916" as="targetPoint" />
          </mxGeometry>
        </mxCell>
        <mxCell id="spKvUHhU39gtqBqX22Vr-15" value="&lt;b&gt;&lt;font style=&quot;font-size: 22px;&quot;&gt;&amp;nbsp;. . .&amp;nbsp;&lt;/font&gt;&lt;/b&gt;" style="text;html=1;align=center;verticalAlign=middle;whiteSpace=wrap;rounded=0;" parent="1" vertex="1">
          <mxGeometry x="940" y="878" width="60" height="30" as="geometry" />
        </mxCell>
        <mxCell id="WPOw6bjwFnv4j3WM2g9t-8" value="" style="whiteSpace=wrap;html=1;shape=mxgraph.basic.document;fillColor=#fff2cc;strokeColor=#d6b656;" parent="1" vertex="1">
          <mxGeometry x="861" y="1199.75" width="179" height="124.5" as="geometry" />
        </mxCell>
        <mxCell id="spKvUHhU39gtqBqX22Vr-33" value="&lt;b&gt;&lt;font style=&quot;font-size: 22px;&quot;&gt;&amp;nbsp;. . .&amp;nbsp;&lt;/font&gt;&lt;/b&gt;" style="text;html=1;align=center;verticalAlign=middle;whiteSpace=wrap;rounded=0;" parent="1" vertex="1">
          <mxGeometry x="918" y="1274" width="60" height="30" as="geometry" />
        </mxCell>
        <mxCell id="WPOw6bjwFnv4j3WM2g9t-9" value="" style="whiteSpace=wrap;html=1;shape=mxgraph.basic.document;fillColor=#fff2cc;strokeColor=#d6b656;" parent="1" vertex="1">
          <mxGeometry x="513.5" y="1377" width="179" height="124.5" as="geometry" />
        </mxCell>
        <mxCell id="spKvUHhU39gtqBqX22Vr-36" value="&lt;b&gt;&lt;font style=&quot;font-size: 22px;&quot;&gt;&amp;nbsp;. . .&amp;nbsp;&lt;/font&gt;&lt;/b&gt;" style="text;html=1;align=center;verticalAlign=middle;whiteSpace=wrap;rounded=0;" parent="1" vertex="1">
          <mxGeometry x="562" y="1453" width="60" height="30" as="geometry" />
        </mxCell>
        <mxCell id="VVtbgN99E6aqFVvkXu2B-1" value="&lt;b&gt;&lt;font style=&quot;font-size: 20px;&quot;&gt;Collecing Api Refernces&lt;/font&gt;&lt;/b&gt;" style="text;html=1;align=center;verticalAlign=middle;whiteSpace=wrap;rounded=0;" parent="1" vertex="1">
          <mxGeometry x="-30" y="693" width="392" height="30" as="geometry" />
        </mxCell>
      </root>
    </mxGraphModel>
  </diagram>
  <diagram id="VOyHDKgvIvIsENBis6GH" name="페이지-9">
    <mxGraphModel dx="1556" dy="1092" grid="0" gridSize="10" guides="1" tooltips="1" connect="1" arrows="1" fold="1" page="0" pageScale="1" pageWidth="827" pageHeight="1169" math="0" shadow="0">
      <root>
        <mxCell id="0" />
        <mxCell id="1" parent="0" />
        <mxCell id="oh1ekyMUGIBnWzDQ5dV7-17" value="" style="rounded=1;whiteSpace=wrap;html=1;fillColor=#f5f5f5;fontColor=#333333;strokeColor=#666666;" parent="1" vertex="1">
          <mxGeometry x="-156" y="-33" width="1100" height="257" as="geometry" />
        </mxCell>
        <mxCell id="oh1ekyMUGIBnWzDQ5dV7-1" value="" style="whiteSpace=wrap;html=1;shape=mxgraph.basic.document;fillColor=#d5e8d4;strokeColor=#82b366;" parent="1" vertex="1">
          <mxGeometry x="-129" y="57" width="264" height="123" as="geometry" />
        </mxCell>
        <mxCell id="oh1ekyMUGIBnWzDQ5dV7-2" value="&lt;font style=&quot;font-size: 15px;&quot;&gt;&lt;b&gt;AImpl.java&lt;/b&gt;&lt;/font&gt;" style="text;html=1;align=center;verticalAlign=middle;whiteSpace=wrap;rounded=0;" parent="1" vertex="1">
          <mxGeometry x="-165" y="22" width="172" height="30" as="geometry" />
        </mxCell>
        <mxCell id="oh1ekyMUGIBnWzDQ5dV7-5" value="&lt;font style=&quot;font-size: 15px;&quot;&gt;&lt;b&gt;BImpl.java&lt;/b&gt;&lt;/font&gt;" style="text;html=1;align=center;verticalAlign=middle;whiteSpace=wrap;rounded=0;" parent="1" vertex="1">
          <mxGeometry x="158" y="16" width="172" height="30" as="geometry" />
        </mxCell>
        <mxCell id="oh1ekyMUGIBnWzDQ5dV7-8" value="&lt;font style=&quot;font-size: 15px;&quot;&gt;&lt;b&gt;CImpl.java&lt;/b&gt;&lt;/font&gt;" style="text;html=1;align=center;verticalAlign=middle;whiteSpace=wrap;rounded=0;" parent="1" vertex="1">
          <mxGeometry x="487" y="13" width="172" height="30" as="geometry" />
        </mxCell>
        <mxCell id="oh1ekyMUGIBnWzDQ5dV7-9" value="&lt;font style=&quot;font-size: 17px;&quot;&gt;&lt;br&gt;...&lt;br&gt;var x = new BImpl().doB();&lt;br&gt;...&lt;/font&gt;" style="text;html=1;align=left;verticalAlign=middle;whiteSpace=wrap;rounded=0;" parent="1" vertex="1">
          <mxGeometry x="-118" y="60" width="227" height="96" as="geometry" />
        </mxCell>
        <mxCell id="oh1ekyMUGIBnWzDQ5dV7-11" value="" style="whiteSpace=wrap;html=1;shape=mxgraph.basic.document;fillColor=#d5e8d4;strokeColor=#82b366;" parent="1" vertex="1">
          <mxGeometry x="187" y="57" width="264" height="123" as="geometry" />
        </mxCell>
        <mxCell id="oh1ekyMUGIBnWzDQ5dV7-10" value="&lt;font style=&quot;font-size: 17px;&quot;&gt;&lt;br&gt;...&lt;br&gt;var y = new CImpl().doC();&lt;br&gt;...&lt;/font&gt;" style="text;html=1;align=left;verticalAlign=middle;whiteSpace=wrap;rounded=0;" parent="1" vertex="1">
          <mxGeometry x="194" y="69.75" width="227" height="76.5" as="geometry" />
        </mxCell>
        <mxCell id="oh1ekyMUGIBnWzDQ5dV7-12" value="" style="whiteSpace=wrap;html=1;shape=mxgraph.basic.document;fillColor=#d5e8d4;strokeColor=#82b366;" parent="1" vertex="1">
          <mxGeometry x="507" y="60" width="264" height="123" as="geometry" />
        </mxCell>
        <mxCell id="oh1ekyMUGIBnWzDQ5dV7-13" value="&lt;font style=&quot;font-size: 17px;&quot;&gt;&lt;br&gt;...&lt;br&gt;var y = new DImpl().doD();&lt;br&gt;...&lt;/font&gt;" style="text;html=1;align=left;verticalAlign=middle;whiteSpace=wrap;rounded=0;" parent="1" vertex="1">
          <mxGeometry x="517" y="77" width="227" height="76.5" as="geometry" />
        </mxCell>
        <mxCell id="oh1ekyMUGIBnWzDQ5dV7-14" value="&lt;b&gt;&lt;font style=&quot;font-size: 25px;&quot;&gt;&amp;nbsp;. . .&lt;/font&gt;&lt;/b&gt;" style="text;html=1;align=center;verticalAlign=middle;whiteSpace=wrap;rounded=0;" parent="1" vertex="1">
          <mxGeometry x="805" y="106.5" width="60" height="30" as="geometry" />
        </mxCell>
        <mxCell id="oh1ekyMUGIBnWzDQ5dV7-15" value="" style="endArrow=classic;html=1;rounded=0;exitX=1;exitY=0.5;exitDx=0;exitDy=0;exitPerimeter=0;entryX=0;entryY=0.5;entryDx=0;entryDy=0;entryPerimeter=0;" parent="1" source="oh1ekyMUGIBnWzDQ5dV7-1" target="oh1ekyMUGIBnWzDQ5dV7-11" edge="1">
          <mxGeometry width="50" height="50" relative="1" as="geometry">
            <mxPoint x="426" y="213" as="sourcePoint" />
            <mxPoint x="476" y="163" as="targetPoint" />
          </mxGeometry>
        </mxCell>
        <mxCell id="oh1ekyMUGIBnWzDQ5dV7-16" value="" style="endArrow=classic;html=1;rounded=0;entryX=0;entryY=0.5;entryDx=0;entryDy=0;entryPerimeter=0;exitX=1;exitY=0.5;exitDx=0;exitDy=0;exitPerimeter=0;" parent="1" source="oh1ekyMUGIBnWzDQ5dV7-11" target="oh1ekyMUGIBnWzDQ5dV7-12" edge="1">
          <mxGeometry width="50" height="50" relative="1" as="geometry">
            <mxPoint x="426" y="213" as="sourcePoint" />
            <mxPoint x="518" y="133" as="targetPoint" />
          </mxGeometry>
        </mxCell>
        <mxCell id="oh1ekyMUGIBnWzDQ5dV7-18" value="&lt;b&gt;&lt;font style=&quot;font-size: 22px;&quot;&gt;Bad : Implementation chaining&lt;/font&gt;&lt;/b&gt;" style="text;html=1;align=center;verticalAlign=middle;whiteSpace=wrap;rounded=0;" parent="1" vertex="1">
          <mxGeometry x="-195" y="-80" width="472" height="30" as="geometry" />
        </mxCell>
      </root>
    </mxGraphModel>
  </diagram>
  <diagram id="bGQcLhTjjva4Q85xSDH0" name="페이지-10">
    <mxGraphModel dx="1556" dy="692" grid="0" gridSize="10" guides="1" tooltips="1" connect="1" arrows="1" fold="1" page="0" pageScale="1" pageWidth="827" pageHeight="1169" math="0" shadow="0">
      <root>
        <mxCell id="0" />
        <mxCell id="1" parent="0" />
        <mxCell id="Nda1hTkpezCCJevlwu04-1" value="" style="rounded=1;whiteSpace=wrap;html=1;fillColor=#f5f5f5;fontColor=#333333;strokeColor=#666666;" parent="1" vertex="1">
          <mxGeometry x="-165" y="408" width="1100" height="398" as="geometry" />
        </mxCell>
        <mxCell id="Nda1hTkpezCCJevlwu04-2" value="" style="whiteSpace=wrap;html=1;shape=mxgraph.basic.document;fillColor=#d5e8d4;strokeColor=#82b366;" parent="1" vertex="1">
          <mxGeometry x="-138" y="460" width="264" height="123" as="geometry" />
        </mxCell>
        <mxCell id="Nda1hTkpezCCJevlwu04-3" value="&lt;font style=&quot;font-size: 15px;&quot;&gt;&lt;b&gt;AImpl.java&lt;/b&gt;&lt;/font&gt;" style="text;html=1;align=center;verticalAlign=middle;whiteSpace=wrap;rounded=0;" parent="1" vertex="1">
          <mxGeometry x="-174" y="425" width="172" height="30" as="geometry" />
        </mxCell>
        <mxCell id="Nda1hTkpezCCJevlwu04-4" value="&lt;font style=&quot;font-size: 15px;&quot;&gt;&lt;b&gt;BImpl.java&lt;/b&gt;&lt;/font&gt;" style="text;html=1;align=center;verticalAlign=middle;whiteSpace=wrap;rounded=0;" parent="1" vertex="1">
          <mxGeometry x="129" y="630" width="172" height="30" as="geometry" />
        </mxCell>
        <mxCell id="Nda1hTkpezCCJevlwu04-5" value="&lt;font style=&quot;font-size: 15px;&quot;&gt;&lt;b&gt;CImpl.java&lt;/b&gt;&lt;/font&gt;" style="text;html=1;align=center;verticalAlign=middle;whiteSpace=wrap;rounded=0;" parent="1" vertex="1">
          <mxGeometry x="461" y="623" width="172" height="30" as="geometry" />
        </mxCell>
        <mxCell id="Nda1hTkpezCCJevlwu04-6" value="&lt;font style=&quot;font-size: 17px;&quot;&gt;&lt;br&gt;...&lt;br&gt;var x = bInterface.doB();&lt;br&gt;...&lt;/font&gt;" style="text;html=1;align=left;verticalAlign=middle;whiteSpace=wrap;rounded=0;" parent="1" vertex="1">
          <mxGeometry x="-127" y="463" width="227" height="96" as="geometry" />
        </mxCell>
        <mxCell id="Nda1hTkpezCCJevlwu04-7" value="" style="whiteSpace=wrap;html=1;shape=mxgraph.basic.document;fillColor=#dae8fc;strokeColor=#6c8ebf;" parent="1" vertex="1">
          <mxGeometry x="161" y="667" width="264" height="123" as="geometry" />
        </mxCell>
        <mxCell id="Nda1hTkpezCCJevlwu04-8" value="&lt;font style=&quot;font-size: 17px;&quot;&gt;&lt;br&gt;...&lt;br&gt;var y = new CImpl().doC();&lt;br&gt;...&lt;/font&gt;" style="text;html=1;align=left;verticalAlign=middle;whiteSpace=wrap;rounded=0;" parent="1" vertex="1">
          <mxGeometry x="168" y="679.75" width="227" height="76.5" as="geometry" />
        </mxCell>
        <mxCell id="Nda1hTkpezCCJevlwu04-9" value="" style="whiteSpace=wrap;html=1;shape=mxgraph.basic.document;fillColor=#dae8fc;strokeColor=#6c8ebf;" parent="1" vertex="1">
          <mxGeometry x="481" y="670" width="264" height="123" as="geometry" />
        </mxCell>
        <mxCell id="Nda1hTkpezCCJevlwu04-10" value="&lt;font style=&quot;font-size: 17px;&quot;&gt;&lt;br&gt;...&lt;br&gt;var y = new DImpl().doD();&lt;br&gt;...&lt;/font&gt;" style="text;html=1;align=left;verticalAlign=middle;whiteSpace=wrap;rounded=0;" parent="1" vertex="1">
          <mxGeometry x="491" y="687" width="227" height="76.5" as="geometry" />
        </mxCell>
        <mxCell id="Nda1hTkpezCCJevlwu04-11" value="&lt;b&gt;&lt;font style=&quot;font-size: 25px;&quot;&gt;&amp;nbsp;. . .&lt;/font&gt;&lt;/b&gt;" style="text;html=1;align=center;verticalAlign=middle;whiteSpace=wrap;rounded=0;" parent="1" vertex="1">
          <mxGeometry x="779" y="716.5" width="60" height="30" as="geometry" />
        </mxCell>
        <mxCell id="Nda1hTkpezCCJevlwu04-12" value="" style="endArrow=classic;html=1;rounded=0;entryX=0;entryY=0.5;entryDx=0;entryDy=0;entryPerimeter=0;exitX=1;exitY=0.5;exitDx=0;exitDy=0;exitPerimeter=0;" parent="1" source="Nda1hTkpezCCJevlwu04-7" target="Nda1hTkpezCCJevlwu04-9" edge="1">
          <mxGeometry width="50" height="50" relative="1" as="geometry">
            <mxPoint x="400" y="823" as="sourcePoint" />
            <mxPoint x="492" y="743" as="targetPoint" />
          </mxGeometry>
        </mxCell>
        <mxCell id="Nda1hTkpezCCJevlwu04-13" value="&lt;font style=&quot;font-size: 15px;&quot;&gt;&lt;b&gt;BInterface.java&lt;/b&gt;&lt;/font&gt;" style="text;html=1;align=center;verticalAlign=middle;whiteSpace=wrap;rounded=0;" parent="1" vertex="1">
          <mxGeometry x="145" y="428" width="172" height="30" as="geometry" />
        </mxCell>
        <mxCell id="Nda1hTkpezCCJevlwu04-14" value="" style="whiteSpace=wrap;html=1;shape=mxgraph.basic.document;fillColor=#d5e8d4;strokeColor=#82b366;" parent="1" vertex="1">
          <mxGeometry x="158" y="460" width="264" height="123" as="geometry" />
        </mxCell>
        <mxCell id="Nda1hTkpezCCJevlwu04-15" value="&lt;b&gt;&lt;font style=&quot;font-size: 25px;&quot;&gt;&amp;nbsp;. . .&lt;/font&gt;&lt;/b&gt;" style="text;html=1;align=center;verticalAlign=middle;whiteSpace=wrap;rounded=0;" parent="1" vertex="1">
          <mxGeometry x="197" y="511" width="60" height="30" as="geometry" />
        </mxCell>
        <mxCell id="Nda1hTkpezCCJevlwu04-16" value="" style="endArrow=classic;html=1;rounded=0;exitX=1;exitY=0.5;exitDx=0;exitDy=0;exitPerimeter=0;" parent="1" source="Nda1hTkpezCCJevlwu04-2" target="Nda1hTkpezCCJevlwu04-14" edge="1">
          <mxGeometry width="50" height="50" relative="1" as="geometry">
            <mxPoint x="345" y="444" as="sourcePoint" />
            <mxPoint x="395" y="394" as="targetPoint" />
          </mxGeometry>
        </mxCell>
        <mxCell id="Nda1hTkpezCCJevlwu04-17" value="&lt;font style=&quot;font-size: 20px;&quot;&gt;&lt;b&gt;Good : Implemantations no need to referencd&amp;nbsp;&lt;/b&gt;&lt;/font&gt;" style="text;html=1;align=left;verticalAlign=middle;whiteSpace=wrap;rounded=0;" parent="1" vertex="1">
          <mxGeometry x="-146" y="359" width="444" height="30" as="geometry" />
        </mxCell>
        <mxCell id="UkQiM3LECiNcc-TMXUxE-4" value="" style="shape=mxgraph.mockup.markup.redX;fillColor=#ff0000;html=1;shadow=0;whiteSpace=wrap;strokeColor=none;" vertex="1" parent="1">
          <mxGeometry x="251" y="599" width="105" height="57" as="geometry" />
        </mxCell>
        <mxCell id="UkQiM3LECiNcc-TMXUxE-5" value="" style="shape=flexArrow;endArrow=classic;html=1;rounded=0;entryX=0.5;entryY=1;entryDx=0;entryDy=0;entryPerimeter=0;" edge="1" parent="1" source="Nda1hTkpezCCJevlwu04-7" target="Nda1hTkpezCCJevlwu04-14">
          <mxGeometry width="50" height="50" relative="1" as="geometry">
            <mxPoint x="355" y="674" as="sourcePoint" />
            <mxPoint x="405" y="624" as="targetPoint" />
          </mxGeometry>
        </mxCell>
        <mxCell id="UkQiM3LECiNcc-TMXUxE-6" value="&lt;font style=&quot;font-size: 16px;&quot;&gt;No need to Reference&lt;/font&gt;" style="text;html=1;align=center;verticalAlign=middle;whiteSpace=wrap;rounded=0;" vertex="1" parent="1">
          <mxGeometry x="312" y="610" width="223" height="30" as="geometry" />
        </mxCell>
      </root>
    </mxGraphModel>
  </diagram>
</mxfile>
